<svg version="1.1" xmlns="http://www.w3.org/2000/svg" width="161" height="160">
<path class="cls-1" d="M0 0 C53.13 0 106.26 0 161 0 C161 52.8 161 105.6 161 160 C107.87 160 54.74 160 0 160 C0 107.2 0 54.4 0 0 Z " fill="#5625E1" transform="translate(0,0)"/>
<path class="cls-1" d="M0 0 C3.3748916 0.16189517 6.07682239 0.85091119 9.125 2.375 C7.92558664 8.93171425 6.38687334 15.24928008 4.375 21.6015625 C4.1162207 22.43408539 3.85744141 23.26660828 3.59082031 24.12435913 C2.77362217 26.75108065 1.94976903 29.37564689 1.125 32 C0.30123576 34.63179138 -0.52102487 37.26403379 -1.34082031 39.89706421 C-1.84805718 41.5251532 -2.35766421 43.15250646 -2.87011719 44.77896118 C-4.37948101 49.61068201 -5.69015749 54.45329275 -6.875 59.375 C-1.27167783 57.27908851 -1.27167783 57.27908851 3.125 53.375 C4.445 54.035 5.765 54.695 7.125 55.375 C7.125 56.695 7.125 58.015 7.125 59.375 C6.465 59.375 5.805 59.375 5.125 59.375 C4.89425781 59.96023437 4.66351563 60.54546875 4.42578125 61.1484375 C2.79392042 63.9417128 0.97914355 65.18492328 -1.6875 67 C-2.53957031 67.59039062 -3.39164063 68.18078125 -4.26953125 68.7890625 C-9.70459605 72.09736281 -13.61557521 72.78545408 -19.875 72.375 C-21.875 70.375 -21.875 70.375 -22.140625 67.94921875 C-22.13546875 66.99660156 -22.1303125 66.04398437 -22.125 65.0625 C-22.13273437 63.64517578 -22.13273437 63.64517578 -22.140625 62.19921875 C-21.86314045 59.24890511 -21.10553508 57.05580856 -19.875 54.375 C-20.56722656 55.09429687 -21.25945312 55.81359375 -21.97265625 56.5546875 C-24.89226941 59.47121764 -28.03822998 61.99547065 -31.3125 64.5 C-32.13331055 65.14388672 -32.13331055 65.14388672 -32.97070312 65.80078125 C-38.66348231 70.17984216 -43.45336313 73.04099113 -50.69140625 72.796875 C-54.53075721 72.05510415 -56.22762996 70.21608004 -58.875 67.375 C-62.4649592 61.9098731 -61.37685586 54.6231055 -60.875 48.375 C-57.36043511 32.63933449 -45.49627906 17.93361938 -32.875 8.375 C-24.31024947 3.5229817 -16.59070721 2.47925225 -6.875 4.375 C-6.545 3.715 -6.215 3.055 -5.875 2.375 C-3.875 0.375 -3.875 0.375 0 0 Z " fill="#F6D834" transform="translate(123.875,39.625)"/>
<path class="cls-1" d="M0 0 C2.4375 1.5 2.4375 1.5 4 3 C0.25029895 21.74850524 -7.02972445 39.44427216 -23 51 C-25.8125 51.25 -25.8125 51.25 -28 51 C-30.79310193 46.05686236 -30.68867178 41.2530867 -29.52636719 35.76269531 C-28.88325737 33.5173119 -28.15771873 31.32552768 -27.375 29.125 C-27.10284668 28.3427002 -26.83069336 27.56040039 -26.55029297 26.75439453 C-22.92849225 16.6488399 -18.55997036 7.82607445 -10 1 C-6.43528609 -0.18823797 -3.7441664 -0.26274852 0 0 Z " fill="#5828DE" transform="translate(110,50)"/>
<path class="cls-2" d="M0 0 C1.34888732 0.00015905 2.69778075 0.00584927 4.04663086 0.01586914 C5.10991859 0.01799156 5.10991859 0.01799156 6.19468689 0.02015686 C8.46699173 0.02577096 10.73919936 0.03832576 13.01147461 0.05102539 C14.54858257 0.05603858 16.08569206 0.0606018 17.62280273 0.06469727 C21.39823103 0.07574497 25.17358632 0.09301898 28.94897461 0.11352539 C28.94897461 4.41577537 27.1474592 6.28269234 24.31518555 9.39819336 C19.71961629 12.72964916 14.52162174 11.97763599 9.07397461 11.67602539 C7.3453418 11.63445313 7.3453418 11.63445313 5.58178711 11.59204102 C-2.82531775 11.33923303 -2.82531775 11.33923303 -4.05102539 10.11352539 C-4.14893109 8.61614415 -4.18077403 7.11409647 -4.17602539 5.61352539 C-4.17860352 4.79883789 -4.18118164 3.98415039 -4.18383789 3.14477539 C-3.96650602 -0.17912388 -3.40317346 0.12662844 0 0 Z " fill="#F9DA32" transform="translate(47.051025390625,48.886474609375)"/>
<path class="cls-2" d="M0 0 C1.58206057 0.00667536 3.16410534 0.0186375 4.74609375 0.03515625 C5.55240234 0.03966797 6.35871094 0.04417969 7.18945312 0.04882812 C9.18753131 0.06065107 11.18557158 0.07858711 13.18359375 0.09765625 C11.86359375 3.72765625 10.54359375 7.35765625 9.18359375 11.09765625 C7.03782738 11.12451563 4.8919673 11.14398713 2.74609375 11.16015625 C1.55113281 11.17175781 0.35617188 11.18335937 -0.875 11.1953125 C-3.81640625 11.09765625 -3.81640625 11.09765625 -4.81640625 10.09765625 C-4.91431195 8.60027501 -4.94615489 7.09822733 -4.94140625 5.59765625 C-4.94398437 4.78296875 -4.9465625 3.96828125 -4.94921875 3.12890625 C-4.70910856 -0.54336727 -3.86340427 0.09885886 0 0 Z " fill="#F7D834" transform="translate(47.81640625,70.90234375)"/>
<path class="cls-2" d="M0 0 C2.83203125 0.03255208 5.6640625 0.06510417 8.49609375 0.09765625 C8.49609375 4.05765625 8.49609375 8.01765625 8.49609375 12.09765625 C-0 12.1953125 -0 12.1953125 -2.50390625 12.09765625 C-3.50390625 11.09765625 -3.50390625 11.09765625 -3.63671875 8.84765625 C-3.63414063 7.94015625 -3.6315625 7.03265625 -3.62890625 6.09765625 C-3.63148437 5.19015625 -3.6340625 4.28265625 -3.63671875 3.34765625 C-3.44818505 0.15367356 -3.21403411 0.12535234 0 0 Z " fill="#E9C942" transform="translate(46.50390625,91.90234375)"/>
<path class="cls-3" d="M0 0 C0.9075 0.00257812 1.815 0.00515625 2.75 0.0078125 C4.11125 0.00394531 4.11125 0.00394531 5.5 0 C7.75 0.1328125 7.75 0.1328125 8.75 1.1328125 C8.84823937 2.79710301 8.87973631 4.46563181 8.875 6.1328125 C8.87757812 7.0403125 8.88015625 7.9478125 8.8828125 8.8828125 C8.75 11.1328125 8.75 11.1328125 7.75 12.1328125 C6.06391034 12.20486761 4.37499341 12.21667318 2.6875 12.1953125 C1.76839844 12.18628906 0.84929688 12.17726563 -0.09765625 12.16796875 C-0.80792969 12.15636719 -1.51820312 12.14476563 -2.25 12.1328125 C-3.4398306 9.7531513 -3.38349966 8.21795515 -3.375 5.5703125 C-3.37886719 4.36181641 -3.37886719 4.36181641 -3.3828125 3.12890625 C-3.19218222 0.2638452 -2.87005919 0.16941322 0 0 Z " fill="#EACA42" transform="translate(30.25,91.8671875)"/>
<path class="cls-3" d="M0 0 C0.9075 0.00257812 1.815 0.00515625 2.75 0.0078125 C4.11125 0.00394531 4.11125 0.00394531 5.5 0 C7.75 0.1328125 7.75 0.1328125 8.75 1.1328125 C8.8479057 2.63019374 8.87974864 4.13224142 8.875 5.6328125 C8.87757812 6.4475 8.88015625 7.2621875 8.8828125 8.1015625 C8.75 10.1328125 8.75 10.1328125 7.75 11.1328125 C6.08570949 11.23105187 4.41718069 11.26254881 2.75 11.2578125 C1.38875 11.26167969 1.38875 11.26167969 0 11.265625 C-2.25 11.1328125 -2.25 11.1328125 -3.25 10.1328125 C-3.3479057 8.63543126 -3.37974864 7.13338358 -3.375 5.6328125 C-3.37757812 4.818125 -3.38015625 4.0034375 -3.3828125 3.1640625 C-3.19390748 0.27492696 -2.8942402 0.17084057 0 0 Z " fill="#F2D339" transform="translate(30.25,70.8671875)"/>
<path class="cls-3" d="M0 0 C0.9075 0.00257812 1.815 0.00515625 2.75 0.0078125 C4.11125 0.00394531 4.11125 0.00394531 5.5 0 C7.75 0.1328125 7.75 0.1328125 8.75 1.1328125 C8.8479057 2.63019374 8.87974864 4.13224142 8.875 5.6328125 C8.87757812 6.4475 8.88015625 7.2621875 8.8828125 8.1015625 C8.75 10.1328125 8.75 10.1328125 7.75 11.1328125 C6.08570949 11.23105187 4.41718069 11.26254881 2.75 11.2578125 C1.38875 11.26167969 1.38875 11.26167969 0 11.265625 C-2.25 11.1328125 -2.25 11.1328125 -3.25 10.1328125 C-3.3479057 8.63543126 -3.37974864 7.13338358 -3.375 5.6328125 C-3.37757812 4.818125 -3.38015625 4.0034375 -3.3828125 3.1640625 C-3.19390748 0.27492696 -2.8942402 0.17084057 0 0 Z " fill="#F2D338" transform="translate(30.25,48.8671875)"/>
<path class="cls-1" d="M0 0 C0.33 0 0.66 0 1 0 C1 2.97 1 5.94 1 9 C-1.31 9 -3.62 9 -6 9 C-4.73046875 7.53515625 -3.4609375 6.0703125 -2.19140625 4.60546875 C-0.79128769 2.89287029 -0.79128769 2.89287029 0 0 Z " fill="#000000" transform="translate(160,151)"/>
<path class="cls-1" d="M0 0 C2.31 0 4.62 0 7 0 C7 2.97 7 5.94 7 9 C6.34 8.01 5.68 7.02 5 6 C4.13824802 4.92672708 3.2630396 3.86412584 2.375 2.8125 C1.59125 1.884375 0.8075 0.95625 0 0 Z " fill="#000000" transform="translate(154,0)"/>
<path class="cls-1" d="M0 0 C1.98 0 3.96 0 6 0 C4.07423885 2.43929746 2.19909405 4.80090595 0 7 C0 4.69 0 2.38 0 0 Z " fill="#000000" transform="translate(0,0)"/>
<path class="cls-2" d="M0 0 C2.02054804 1.64169528 4.02043058 3.30911778 6 5 C6 5.33 6 5.66 6 6 C4.02 6 2.04 6 0 6 C0 4.02 0 2.04 0 0 Z " fill="#000000" transform="translate(0,154)"/>
</svg>
