<svg class="cls-1" version="1.1" xmlns="http://www.w3.org/2000/svg" width="300" height="66">
<path d="M0 0 C1.69140625 1.34765625 1.69140625 1.34765625 3.125 2.75 C5.89208104 5.4016386 5.89208104 5.4016386 9.8125 4.9375 C11.21602935 4.66161541 12.61232079 4.3469198 14 4 C19.79693092 2.55076727 24.09359696 1.7433185 30 3 C30.495 4.485 30.495 4.485 31 6 C29.84765625 7.83203125 29.84765625 7.83203125 28.0625 9.8125 C27.09957031 10.88757813 27.09957031 10.88757813 26.1171875 11.984375 C24.06764691 13.93559814 22.1227572 15.15308375 19.6875 16.5625 C16.63319278 18.69054898 16.06483342 19.7253193 15.19140625 23.42578125 C14.89523976 26.07555398 14.63254948 28.7126072 14.40234375 31.3671875 C13.55592619 39.00959852 9.96230681 43.49101866 4.5859375 48.75 C3 50 3 50 1 50 C0.16320723 47.37605694 -0.66956942 44.75095616 -1.5 42.125 C-1.73847656 41.37863281 -1.97695313 40.63226563 -2.22265625 39.86328125 C-4 34.2265625 -4 34.2265625 -4 32 C-5.32 32.66 -6.64 33.32 -8 34 C-7.79503906 34.70125 -7.59007812 35.4025 -7.37890625 36.125 C-5.77632603 41.76853609 -4.55105987 47.15876543 -4 53 C-7.3957123 55.05701803 -10.0617659 55.26969117 -14 55.25 C-15.546875 55.25773437 -15.546875 55.25773437 -17.125 55.265625 C-20 55 -20 55 -24 53 C-23.01 48.71 -22.02 44.42 -21 40 C-22.98 40.66 -24.96 41.32 -27 42 C-27.33 44.64 -27.66 47.28 -28 50 C-28.721875 49.690625 -29.44375 49.38125 -30.1875 49.0625 C-35.38668768 47.09836243 -38.51433396 46.88483828 -43.875 48.5 C-48.77487295 49.83687892 -52.09260866 50.22684784 -57 49 C-57.65234375 47.2109375 -57.65234375 47.2109375 -58 45 C-55.03318275 39.56290395 -49.19490692 35.19416574 -44 32 C-43.34 32 -42.68 32 -42 32 C-42.20625 30.865625 -42.4125 29.73125 -42.625 28.5625 C-43.55646196 20.66592697 -41.37766162 14.46835775 -36.7578125 8.07421875 C-27.29260917 -3.09472118 -13.31118372 -5.6921368 0 0 Z M-14 0 C-17.03552062 9.50295285 -20.05019856 19.01331412 -22.9375 28.5625 C-23.16074951 29.28171631 -23.38399902 30.00093262 -23.61401367 30.74194336 C-24.9191174 34.41167098 -24.9191174 34.41167098 -24 38 C-21.5264469 37.42513453 -21.5264469 37.42513453 -19 36 C-17.52750245 33.30549728 -17.52750245 33.30549728 -16.6875 30.125 C-16.36136719 29.07570313 -16.03523438 28.02640625 -15.69921875 26.9453125 C-14.84601279 23.85588986 -14.84601279 23.85588986 -15 20 C-14.34 20 -13.68 20 -13 20 C-12.01 23.63 -11.02 27.26 -10 31 C-8.35 30.34 -6.7 29.68 -5 29 C-7.3165476 19.22529916 -10.11670623 9.61857685 -13 0 C-13.33 0 -13.66 0 -14 0 Z M10 11 C10.99 12.98 11.98 14.96 13 17 C16.91603304 14.20579508 16.91603304 14.20579508 19 10 C17.95420381 8.73778302 17.95420381 8.73778302 15.625 8.8125 C12.76555137 8.79951452 12.76555137 8.79951452 10 11 Z M-44.0625 37.8125 C-46.33151762 39.88726618 -46.33151762 39.88726618 -46 43 C-43.69 43 -41.38 43 -39 43 C-38.67 42.34 -38.34 41.68 -38 41 C-39.31865712 38.35774595 -39.31865712 38.35774595 -41 36 C-42.33242841 35.8899809 -42.33242841 35.8899809 -44.0625 37.8125 Z " fill="#F49724" transform="translate(60,7)"/>
<path d="M0 0 C0.495 1.485 0.495 1.485 1 3 C-0.15234375 4.83203125 -0.15234375 4.83203125 -1.9375 6.8125 C-2.90042969 7.88757813 -2.90042969 7.88757813 -3.8828125 8.984375 C-5.93235309 10.93559814 -7.8772428 12.15308375 -10.3125 13.5625 C-13.36680722 15.69054898 -13.93516658 16.7253193 -14.80859375 20.42578125 C-15.10476024 23.07555398 -15.36745052 25.7126072 -15.59765625 28.3671875 C-16.44407381 36.00959852 -20.03769319 40.49101866 -25.4140625 45.75 C-27 47 -27 47 -29 47 C-29.83679277 44.37605694 -30.66956942 41.75095616 -31.5 39.125 C-31.73847656 38.37863281 -31.97695313 37.63226563 -32.22265625 36.86328125 C-34 31.2265625 -34 31.2265625 -34 29 C-35.98 29.99 -35.98 29.99 -38 31 C-37.79503906 31.70125 -37.59007812 32.4025 -37.37890625 33.125 C-35.77632603 38.76853609 -34.55105987 44.15876543 -34 50 C-37.3957123 52.05701803 -40.0617659 52.26969117 -44 52.25 C-45.546875 52.25773437 -45.546875 52.25773437 -47.125 52.265625 C-50 52 -50 52 -54 50 C-53.01 45.71 -52.02 41.42 -51 37 C-52.98 37.66 -54.96 38.32 -57 39 C-57.33 41.64 -57.66 44.28 -58 47 C-58.721875 46.690625 -59.44375 46.38125 -60.1875 46.0625 C-65.38668768 44.09836243 -68.51433396 43.88483828 -73.875 45.5 C-78.77487295 46.83687892 -82.09260866 47.22684784 -87 46 C-87.65234375 44.2109375 -87.65234375 44.2109375 -88 42 C-85.07042538 36.63115613 -79.21786329 32.0372637 -74 29 C-73.01 29 -72.02 29 -71 29 C-71.51152368 32.78527521 -72.20845842 34.44108688 -75 37 C-75.33 37.99 -75.66 38.98 -76 40 C-67.82641419 39.1167254 -60.85102023 37.45490464 -53.36328125 34.0234375 C-51 33 -51 33 -49 33 C-47.68 27.72 -46.36 22.44 -45 17 C-44.34 17 -43.68 17 -43 17 C-41.68 20.3 -40.36 23.6 -39 27 C-37.1128125 25.9790625 -37.1128125 25.9790625 -35.1875 24.9375 C-33.04296875 23.77734375 -33.04296875 23.77734375 -31 23 C-28 24 -28 24 -27 26 C-25.02463255 25.65213292 -25.02463255 25.65213292 -23 25 C-22.67 24.34 -22.34 23.68 -22 23 C-21.01 23 -20.02 23 -19 23 C-18.505 21.515 -18.505 21.515 -18 20 C-18.66 20 -19.32 20 -20 20 C-20.99 19.01 -20.99 19.01 -22 18 C-21.36191406 17.45730469 -20.72382812 16.91460938 -20.06640625 16.35546875 C-19.24011719 15.64003906 -18.41382812 14.92460937 -17.5625 14.1875 C-16.73878906 13.47980469 -15.91507812 12.77210937 -15.06640625 12.04296875 C-12.77835241 10.08890314 -12.77835241 10.08890314 -12 7 C-13.98567708 7.06510417 -15.97135417 7.13020833 -17.95703125 7.1953125 C-20 7 -20 7 -23 5 C-23 4.34 -23 3.68 -23 3 C-20.48279191 2.29590698 -17.96274181 1.61163944 -15.4375 0.9375 C-14.73302734 0.73833984 -14.02855469 0.53917969 -13.30273438 0.33398438 C-8.45951166 -0.93819855 -4.90847177 -1.02555455 0 0 Z " fill="#D7892C" transform="translate(90,10)"/>
<path d="M0 0 C2.88589105 2.50110558 3.00389153 4.03015934 3.5 7.875 C3.36671264 10.97537989 2.77100928 12.92625791 0.9375 15.4375 C-2.48093854 18.41954213 -4.53070868 18.82473367 -9 19 C-8.39816251 21.02045442 -7.72693904 23.02111039 -7 25 C-4.55222161 26.2238892 -3.26609459 26.016364 -0.5625 25.75 C0.21996094 25.68296875 1.00242187 25.6159375 1.80859375 25.546875 C4.46813614 24.88317458 5.29899259 24.12640811 7 22 C7.50054751 19.88384156 7.50054751 19.88384156 7.51171875 17.55078125 C7.54716797 16.70322266 7.58261719 15.85566406 7.61914062 14.98242188 C7.64169922 14.10134766 7.66425781 13.22027344 7.6875 12.3125 C7.72166016 11.41982422 7.75582031 10.52714844 7.79101562 9.60742188 C7.87345648 7.40507329 7.94261551 5.20312062 8 3 C6.35 3 4.7 3 3 3 C3.33 1.35 3.66 -0.3 4 -2 C8.29 -2 12.58 -2 17 -2 C17.33 -0.35 17.66 1.3 18 3 C16.02 3 14.04 3 12 3 C12 14.55 12 26.1 12 38 C10.68 37.67 9.36 37.34 8 37 C7.67 34.36 7.34 31.72 7 29 C6.13375 29.495 5.2675 29.99 4.375 30.5 C0.75527463 32.10876683 -1.10348102 32.56824235 -5 32 C-8.96442859 29.86530768 -11.40676972 28.22876075 -13 24 C-13.1953125 21.203125 -13.1953125 21.203125 -13.125 18.25 C-13.09792969 16.77273437 -13.09792969 16.77273437 -13.0703125 15.265625 C-13.03550781 14.14414062 -13.03550781 14.14414062 -13 13 C-11.01432292 13.06510417 -9.02864583 13.13020833 -7.04296875 13.1953125 C-4.68640281 13.13254462 -4.68640281 13.13254462 -2 11 C-1.7497843 7.91634129 -1.7497843 7.91634129 -2 5 C-3.32 4.67 -4.64 4.34 -6 4 C-6.6496875 4.99 -6.6496875 4.99 -7.3125 6 C-7.869375 6.66 -8.42625 7.32 -9 8 C-9.99 8 -10.98 8 -12 8 C-11.63781321 1.60136674 -11.63781321 1.60136674 -8.8125 -1.0625 C-5.08721281 -2.3042624 -3.47735244 -1.73867622 0 0 Z " fill="#976F4F" transform="translate(256,16)"/>
<path d="M0 0 C9.57 0 19.14 0 29 0 C29.33 1.65 29.66 3.3 30 5 C28.02 5 26.04 5 24 5 C24 16.55 24 28.1 24 40 C22.68 40 21.36 40 20 40 C19.505 35.05 19.505 35.05 19 30 C18.01 30.66 17.02 31.32 16 32 C12.33873302 31.8442014 10.51756559 31.43363604 7.6875 29.0625 C5.17473647 25.99134458 4.87769703 24.32386908 4.90234375 20.4296875 C4.90556641 19.53378906 4.90878906 18.63789062 4.91210938 17.71484375 C4.92048828 16.77769531 4.92886719 15.84054688 4.9375 14.875 C4.94201172 13.93011719 4.94652344 12.98523437 4.95117188 12.01171875 C4.96297643 9.67441613 4.97944241 7.33723939 5 5 C3.35 5 1.7 5 0 5 C0 3.35 0 1.7 0 0 Z M9 5 C8.89220518 8.10508973 8.81279371 11.20645418 8.75 14.3125 C8.71648437 15.19357422 8.68296875 16.07464844 8.6484375 16.98242188 C8.43424255 21.98351119 8.43424255 21.98351119 10.81640625 26.15234375 C13.12875435 27.28691543 13.12875435 27.28691543 16.1875 26.25 C18.852669 25.26699069 18.852669 25.26699069 20 24 C20.08651611 22.58429877 20.10704904 21.164405 20.09765625 19.74609375 C20.09443359 18.89208984 20.09121094 18.03808594 20.08789062 17.15820312 C20.07951172 16.26037109 20.07113281 15.36253906 20.0625 14.4375 C20.05798828 13.53580078 20.05347656 12.63410156 20.04882812 11.70507812 C20.03700244 9.47002411 20.01906638 7.23500398 20 5 C16.37 5 12.74 5 9 5 Z " fill="#8D6341" transform="translate(210,14)"/>
<path d="M0 0 C4.62 0 9.24 0 14 0 C17 3 17 3 17.34057617 6.73706055 C17.34010191 8.28702778 17.3231949 9.83704619 17.29296875 11.38671875 C17.28872391 12.20372757 17.28447906 13.02073639 17.28010559 13.86250305 C17.26331691 16.47117107 17.22566519 19.07906562 17.1875 21.6875 C17.17245337 23.45636905 17.15876492 25.22525021 17.14648438 26.99414062 C17.11341286 31.32972496 17.0616299 35.66473136 17 40 C15.68 40 14.36 40 13 40 C13 35.71 13 31.42 13 27 C10.03 27 7.06 27 4 27 C4 31.29 4 35.58 4 40 C2.68 40 1.36 40 0 40 C0 26.8 0 13.6 0 0 Z M4 4 C4 10.27 4 16.54 4 23 C6.97 23 9.94 23 13 23 C13 16.73 13 10.46 13 4 C10.03 4 7.06 4 4 4 Z " fill="#AA8669" transform="translate(163,14)"/>
<path d="M0 0 C0.845625 -0.0103125 1.69125 -0.020625 2.5625 -0.03125 C5.8797898 0.69174906 6.92245295 1.82389261 9 4.5 C9.50170898 7.828125 9.50170898 7.828125 9.49609375 11.75 C9.49754898 12.44512695 9.49900421 13.14025391 9.50050354 13.85644531 C9.4988477 15.32230838 9.48732135 16.78818939 9.46655273 18.25390625 C9.4375913 20.49294147 9.44594895 22.7296079 9.45898438 24.96875 C9.45274644 26.3958448 9.44435506 27.82293214 9.43359375 29.25 C9.42384521 30.54421875 9.41409668 31.8384375 9.40405273 33.171875 C8.98184052 36.64957706 8.5069222 38.09739368 6 40.5 C3.1875 41.03125 3.1875 41.03125 0 41 C-1.5778125 41.01546875 -1.5778125 41.01546875 -3.1875 41.03125 C-6 40.5 -6 40.5 -7.64868164 38.91992188 C-9.50031196 35.60404839 -9.4050667 33.03726059 -9.43359375 29.25 C-9.4388356 28.55487305 -9.44407745 27.85974609 -9.44947815 27.14355469 C-9.45588529 25.67774793 -9.45457822 24.21188967 -9.44604492 22.74609375 C-9.43752617 20.50688013 -9.46632168 18.27021228 -9.49804688 16.03125 C-9.49965891 14.60416743 -9.49908131 13.17708035 -9.49609375 11.75 C-9.49887329 9.80867188 -9.49887329 9.80867188 -9.50170898 7.828125 C-8.63763285 2.09620977 -5.65128538 -0.06891811 0 0 Z M-5 5.5 C-5.08790975 7.79151417 -5.10694038 10.08572524 -5.09765625 12.37890625 C-5.0962413 13.0655687 -5.09482635 13.75223114 -5.09336853 14.45970154 C-5.08775479 16.66067801 -5.07520007 18.86155409 -5.0625 21.0625 C-5.05748676 22.55143083 -5.05292355 24.04036324 -5.04882812 25.52929688 C-5.03778093 29.18623075 -5.02050713 32.84310558 -5 36.5 C-3.52093108 36.52689216 -2.04172517 36.54634621 -0.5625 36.5625 C0.67306641 36.57990234 0.67306641 36.57990234 1.93359375 36.59765625 C3.99163938 36.73267348 3.99163938 36.73267348 5 35.5 C5.10012401 33.29349344 5.1308118 31.08377614 5.1328125 28.875 C5.13376923 28.21290527 5.13472595 27.55081055 5.13571167 26.86865234 C5.13639326 25.46647039 5.13454042 24.0642853 5.13037109 22.66210938 C5.12502246 20.50904287 5.1303167 18.35618498 5.13671875 16.203125 C5.13605796 14.84374954 5.13477679 13.4843742 5.1328125 12.125 C5.13168457 10.87976563 5.13055664 9.63453125 5.12939453 8.3515625 C5.32572127 5.60094569 5.32572127 5.60094569 4 4.5 C2.12678052 4.33946185 2.12678052 4.33946185 0 4.375 C-0.721875 4.37242188 -1.44375 4.36984375 -2.1875 4.3671875 C-4.02089415 4.30304724 -4.02089415 4.30304724 -5 5.5 Z " fill="#946C4B" transform="translate(195,13.5)"/>
<path d="M0 0 C0.66 0 1.32 0 2 0 C3.14173056 6.37164123 4.2807901 12.74375574 5.41796875 19.11621094 C5.80536984 21.28526703 6.19338872 23.45421288 6.58203125 25.62304688 C7.13963587 28.73539101 7.6950381 31.8481212 8.25 34.9609375 C8.42499023 35.934935 8.59998047 36.9089325 8.78027344 37.91244507 C8.94043945 38.81322784 9.10060547 39.71401062 9.265625 40.64208984 C9.40774414 41.43706879 9.54986328 42.23204773 9.69628906 43.05111694 C10 45 10 45 10 47 C8.35 46.67 6.7 46.34 5 46 C3.68 38.08 2.36 30.16 1 22 C-0.65 30.25 -2.3 38.5 -4 47 C-5.32 47 -6.64 47 -8 47 C-7.18456978 41.91334166 -6.36659885 36.8271004 -5.54638672 31.74121094 C-5.26836354 30.01508326 -4.99100542 28.28884831 -4.71435547 26.5625 C-3.28972712 17.67528778 -1.86294482 8.80829248 0 0 Z " fill="#966D4C" transform="translate(100,7)"/>
<path d="M0 0 C2.57195055 2.57195055 3.1011375 4.84947442 4.1875 8.3125 C4.55230469 9.44300781 4.91710937 10.57351562 5.29296875 11.73828125 C5.99673818 14.9849524 5.92746044 16.85136043 5 20 C1.80843552 21.06385483 -0.58497476 21.16677982 -3.9375 21.1875 C-5.49791016 21.20876953 -5.49791016 21.20876953 -7.08984375 21.23046875 C-9.95046613 21.00392282 -11.57670151 20.47733619 -14 19 C-13.60140439 17.07949388 -13.18034074 15.16364288 -12.75 13.25 C-12.51796875 12.18265625 -12.2859375 11.1153125 -12.046875 10.015625 C-10.66291691 6.02899946 -8.76959493 3.96392569 -5.078125 1.953125 C-3.38541667 1.30208333 -1.69270833 0.65104167 0 0 Z " fill="#F49827" transform="translate(50,41)"/>
<path d="M0 0 C0.9590625 -0.00773438 1.918125 -0.01546875 2.90625 -0.0234375 C5.5 0.375 5.5 0.375 7.34375 1.6484375 C8.5 3.375 8.5 3.375 8.5 7.375 C7.18 7.375 5.86 7.375 4.5 7.375 C4.5 6.385 4.5 5.395 4.5 4.375 C1.53 4.375 -1.44 4.375 -4.5 4.375 C-4.74388021 8.03320318 -4.75897697 9.97913876 -3.5 13.375 C-1.52046608 15.40818748 0.43480073 17.26521508 2.5625 19.125 C6.08173713 22.2596628 8.22782519 24.2886675 9.3984375 28.9609375 C9.43532822 32.30323661 9.38101387 35.14943011 8.5 38.375 C5.16602694 40.59764871 3.90485109 40.67175463 0 40.6875 C-0.9590625 40.70425781 -1.918125 40.72101562 -2.90625 40.73828125 C-5.5 40.375 -5.5 40.375 -7.34375 39.10546875 C-8.5 37.375 -8.5 37.375 -8.5 33.375 C-7.18 33.375 -5.86 33.375 -4.5 33.375 C-4.5 34.365 -4.5 35.355 -4.5 36.375 C-1.53 36.375 1.44 36.375 4.5 36.375 C4.76165286 31.05472521 4.49610763 28.57032916 1.01953125 24.3984375 C-0.93759864 22.41798917 -2.97124545 20.53273333 -5.03125 18.66015625 C-7.70393461 16.18623141 -8.41319018 15.44175919 -8.703125 11.87890625 C-8.71859375 10.90824219 -8.7340625 9.93757813 -8.75 8.9375 C-8.77578125 7.96941406 -8.8015625 7.00132813 -8.828125 6.00390625 C-8.5 3.375 -8.5 3.375 -7.328125 1.55078125 C-4.81179822 -0.06762551 -2.97349606 -0.02397981 0 0 Z " fill="#906643" transform="translate(124.5,13.625)"/>
<path d="M0 0 C3.40066339 2.12541462 3.88251741 3.5692305 4.9375 7.4375 C5.00735492 11.41923028 4.39706001 12.89269999 2 16 C-0.63326457 18.63326457 -2.32553101 18.71180635 -6 19 C-9.40012301 18.05112846 -11.97250309 16.93987052 -14 14 C-15.01144763 10.09870199 -15.40409235 7.90920779 -13.75 4.1875 C-9.86738714 -0.66576607 -5.80173034 -0.82881862 0 0 Z M-7 2 C-3 3 -3 3 -3 3 Z M-10 4 C-12.30662599 5.88659875 -12.30662599 5.88659875 -12.3125 9 C-12.209375 9.99 -12.10625 10.98 -12 12 C-10.515 12.99 -10.515 12.99 -9 14 C-9 10.7 -9 7.4 -9 4 C-9.33 4 -9.66 4 -10 4 Z M0 5 C-0.66 6.65 -1.32 8.3 -2 10 C-1.01 10.99 -0.02 11.98 1 13 C2.35618499 11.87465895 2.35618499 11.87465895 2.0625 8.9375 C2.041875 7.968125 2.02125 6.99875 2 6 C1.34 5.67 0.68 5.34 0 5 Z M-6 6 C-6 6.66 -6 7.32 -6 8 C-5.34 8 -4.68 8 -4 8 C-4 7.34 -4 6.68 -4 6 C-4.66 6 -5.32 6 -6 6 Z M-6 11 C-6 12.32 -6 13.64 -6 15 C-6.99 15.495 -6.99 15.495 -8 16 C-6.02 16 -4.04 16 -2 16 C-2.66 15.67 -3.32 15.34 -4 15 C-4.625 12.9375 -4.625 12.9375 -5 11 C-5.33 11 -5.66 11 -6 11 Z " fill="#8C6341" transform="translate(293,4)"/>
<path d="M0 0 C5.61 0 11.22 0 17 0 C17 1.32 17 2.64 17 4 C14.69 4 12.38 4 10 4 C10 15.88 10 27.76 10 40 C8.68 40 7.36 40 6 40 C6 28.12 6 16.24 6 4 C4.02 4 2.04 4 0 4 C-0.33 3.34 -0.66 2.68 -1 2 C-0.67 1.34 -0.34 0.68 0 0 Z " fill="#9C7556" transform="translate(140,14)"/>
<path d="M0 0 C0.33 0.99 0.66 1.98 1 3 C-3.82344939 10.668467 -11.86407751 16.33883488 -20 20 C-20.66 19.34 -21.32 18.68 -22 18 C-21.36191406 17.45730469 -20.72382812 16.91460938 -20.06640625 16.35546875 C-19.24011719 15.64003906 -18.41382812 14.92460937 -17.5625 14.1875 C-16.73878906 13.47980469 -15.91507812 12.77210937 -15.06640625 12.04296875 C-12.77835241 10.08890314 -12.77835241 10.08890314 -12 7 C-14.97851562 7.09765625 -14.97851562 7.09765625 -17.95703125 7.1953125 C-20 7 -20 7 -23 5 C-23 4.34 -23 3.68 -23 3 C-20.48279191 2.29590698 -17.96274181 1.61163944 -15.4375 0.9375 C-14.73302734 0.73833984 -14.02855469 0.53917969 -13.30273438 0.33398438 C-8.45951166 -0.93819855 -4.90847177 -1.02555455 0 0 Z " fill="#8F6442" transform="translate(90,10)"/>
<path d="M0 0 C9.57 0 19.14 0 29 0 C29 0.33 29 0.66 29 1 C19.76 1 10.52 1 1 1 C1 1.99 1 2.98 1 4 C2.65 4 4.3 4 6 4 C6 10.27 6 16.54 6 23 C6.66 23 7.32 23 8 23 C8 17.06 8 11.12 8 5 C8.33 5 8.66 5 9 5 C9.33 11.27 9.66 17.54 10 24 C12.475 24.99 12.475 24.99 15 26 C16.32 25.34 17.64 24.68 19 24 C19 17.4 19 10.8 19 4 C19.66 4 20.32 4 21 4 C22.40027356 30.17654243 22.40027356 30.17654243 21 40 C20.67 40 20.34 40 20 40 C19.505 35.05 19.505 35.05 19 30 C18.01 30.66 17.02 31.32 16 32 C12.33873302 31.8442014 10.51756559 31.43363604 7.6875 29.0625 C5.17473647 25.99134458 4.87769703 24.32386908 4.90234375 20.4296875 C4.90556641 19.53378906 4.90878906 18.63789062 4.91210938 17.71484375 C4.92048828 16.77769531 4.92886719 15.84054688 4.9375 14.875 C4.94201172 13.93011719 4.94652344 12.98523437 4.95117188 12.01171875 C4.96297643 9.67441613 4.97944241 7.33723939 5 5 C3.35 5 1.7 5 0 5 C0 3.35 0 1.7 0 0 Z " fill="#AA8464" transform="translate(210,14)"/>
<path d="M0 0 C0.78890625 0.13921875 1.5778125 0.2784375 2.390625 0.421875 C3.18984375 0.55078125 3.9890625 0.6796875 4.8125 0.8125 C5.41578125 0.93109375 6.0190625 1.0496875 6.640625 1.171875 C6.640625 1.831875 6.640625 2.491875 6.640625 3.171875 C4.000625 3.171875 1.360625 3.171875 -1.359375 3.171875 C-1.359375 14.061875 -1.359375 24.951875 -1.359375 36.171875 C1.280625 36.501875 3.920625 36.831875 6.640625 37.171875 C6.640625 37.831875 6.640625 38.491875 6.640625 39.171875 C4.84969309 39.25273647 3.05772872 39.31100202 1.265625 39.359375 C-0.23097656 39.41158203 -0.23097656 39.41158203 -1.7578125 39.46484375 C-2.61632812 39.36816406 -3.47484375 39.27148438 -4.359375 39.171875 C-7.66066513 34.2199398 -6.73124767 28.29404118 -6.72998047 22.4934082 C-6.73435339 20.2454857 -6.77067869 17.99952821 -6.80859375 15.75195312 C-6.81446237 14.3203192 -6.81843146 12.88867597 -6.8203125 11.45703125 C-6.82853027 10.15644775 -6.83674805 8.85586426 -6.84521484 7.51586914 C-6.359375 4.171875 -6.359375 4.171875 -4.47802734 1.72729492 C-2.359375 0.171875 -2.359375 0.171875 0 0 Z " fill="#967153" transform="translate(192.359375,13.828125)"/>
<path d="M0 0 C0.66 0 1.32 0 2 0 C3.32 3.3 4.64 6.6 6 10 C7.258125 9.319375 8.51625 8.63875 9.8125 7.9375 C11.95703125 6.77734375 11.95703125 6.77734375 14 6 C14.99 6.33 15.98 6.66 17 7 C17 7.66 17 8.32 17 9 C-7.77626887 21.10077671 -7.77626887 21.10077671 -19 25 C-19.33 24.34 -19.66 23.68 -20 23 C-20.66 22.67 -21.32 22.34 -22 22 C-19.37646482 20.99600476 -16.75132205 19.99665555 -14.125 19 C-13.00544922 18.57074219 -13.00544922 18.57074219 -11.86328125 18.1328125 C-6.2265625 16 -6.2265625 16 -4 16 C-2.68 10.72 -1.36 5.44 0 0 Z " fill="#926336" transform="translate(45,27)"/>
<path d="M0 0 C2.92322334 2.53346023 3.00316094 4.02844848 3.4375 7.9375 C3.29473597 10.87514452 2.87667779 12.2573681 1.5625 15 C-2.15801827 17.90381914 -5.44499552 17.4379812 -10 17 C-10 16.34 -10 15.68 -10 15 C-9.05125 14.896875 -8.1025 14.79375 -7.125 14.6875 C-3.70892499 14.31460705 -3.70892499 14.31460705 -2 11 C-1.83300768 7.87478167 -1.83300768 7.87478167 -2 5 C-3.32 4.67 -4.64 4.34 -6 4 C-6.6496875 4.99 -6.6496875 4.99 -7.3125 6 C-7.869375 6.66 -8.42625 7.32 -9 8 C-9.99 8 -10.98 8 -12 8 C-11.63781321 1.60136674 -11.63781321 1.60136674 -8.8125 -1.0625 C-5.08721281 -2.3042624 -3.47735244 -1.73867622 0 0 Z " fill="#936947" transform="translate(256,16)"/>
<path d="M0 0 C3.63 0 7.26 0 11 0 C11.33 0.66 11.66 1.32 12 2 C8.7 2 5.4 2 2 2 C2 13.88 2 25.76 2 38 C1.34 38 0.68 38 0 38 C0 25.46 0 12.92 0 0 Z " fill="#784C28" transform="translate(164,15)"/>
<path d="M0 0 C0.33 0 0.66 0 1 0 C1.02505615 0.90355225 1.0501123 1.80710449 1.07592773 2.73803711 C1.17087317 6.0796428 1.27011621 9.42106252 1.37231445 12.76245117 C1.4157163 14.2106424 1.45738744 15.65888654 1.49731445 17.10717773 C1.55489062 19.18489559 1.61862028 21.26234573 1.68359375 23.33984375 C1.72025146 24.59144287 1.75690918 25.84304199 1.79467773 27.13256836 C1.67803906 29.89630504 1.67803906 29.89630504 3 31 C4.34747084 31.23075082 5.70377565 31.41153063 7.0625 31.5625 C8.361875 31.706875 9.66125 31.85125 11 32 C11 32.66 11 33.32 11 34 C9.18757948 34.02687279 7.37504767 34.04633715 5.5625 34.0625 C4.55316406 34.07410156 3.54382813 34.08570313 2.50390625 34.09765625 C0 34 0 34 -1 33 C-1.1007812 30.63601532 -1.13973215 28.30188689 -1.1328125 25.9375 C-1.13376923 25.23101318 -1.13472595 24.52452637 -1.13571167 23.79663086 C-1.13639333 22.30029207 -1.13454005 20.80395033 -1.13037109 19.30761719 C-1.12502257 17.00969843 -1.13031651 14.71197514 -1.13671875 12.4140625 C-1.13605797 10.96354123 -1.1347768 9.51302009 -1.1328125 8.0625 C-1.13483673 7.3708374 -1.13686096 6.6791748 -1.13894653 5.96655273 C-1.11495224 1.11495224 -1.11495224 1.11495224 0 0 Z " fill="#835835" transform="translate(188,19)"/>
</svg>
