<svg version="1.1" xmlns="http://www.w3.org/2000/svg" width="70" height="60">
  <path class="cls-1" d="M0 0 C7.59 0 15.18 0 23 0 C23 10.89 23 21.78 23 33 C15.41 33 7.82 33 0 33 C0 22.11 0 11.22 0 0 Z M3 3 C3 11.91 3 20.82 3 30 C8.61 30 14.22 30 20 30 C20 21.09 20 12.18 20 3 C14.39 3 8.78 3 3 3 Z " fill="#FFFFFF" transform="translate(29,23)"/>
  <path class="cls-1" d="M0 0 C0.66 0 1.32 0 2 0 C2 7.26 2 14.52 2 22 C-4.27 22 -10.54 22 -17 22 C-17 21.34 -17 20.68 -17 20 C-11.39 20 -5.78 20 0 20 C0 13.4 0 6.8 0 0 Z " fill="#FFFFFF" transform="translate(54,38)"/>
  <path class="cls-2" d="M0 0 C5.94 0 11.88 0 18 0 C18 0.66 18 1.32 18 2 C12.72 2 7.44 2 2 2 C2 8.6 2 15.2 2 22 C1.34 22 0.68 22 0 22 C0 14.74 0 7.48 0 0 Z " fill="#FFFFFF" transform="translate(25,19)"/>
  <path class="cls-2" d="M0 0 C3.63 0 7.26 0 11 0 C11 0.33 11 0.66 11 1 C7.37 1 3.74 1 0 1 C0 0.67 0 0.34 0 0 Z " fill="#FFFFFF" transform="translate(35,46)"/>
  <path class="cls-3" d="M0 0 C3.63 0 7.26 0 11 0 C11 0.33 11 0.66 11 1 C7.37 1 3.74 1 0 1 C0 0.67 0 0.34 0 0 Z " fill="#FFFFFF" transform="translate(35,39)"/>
  <path class="cls-3" d="M0 0 C3.63 0 7.26 0 11 0 C11 0.33 11 0.66 11 1 C7.37 1 3.74 1 0 1 C0 0.67 0 0.34 0 0 Z " fill="#FFFFFF" transform="translate(35,32)"/>
</svg>
