<svg version="1.1" xmlns="http://www.w3.org/2000/svg" width="508" height="491">
<path d="M0 0 C0.66 0 1.32 0 2 0 C3.05734399 3.45447577 3.11925991 6.61742629 3.10920715 10.2197876 C3.1079483 11.49794342 3.10668945 12.77609924 3.10539246 14.09298706 C3.09878904 15.50762999 3.09205553 16.92227231 3.08520508 18.33691406 C3.08160804 19.828765 3.07840335 21.32061692 3.07556152 22.81246948 C3.06618861 26.8669272 3.04984828 30.92132622 3.03119111 34.97575092 C3.01953563 37.5146719 3.00887323 40.05359536 2.99844933 42.59252167 C2.96519478 50.55248973 2.92715283 58.5124167 2.88308412 66.47233224 C2.83252796 75.62865856 2.79817616 84.7848555 2.77790338 93.94129777 C2.76113827 101.03635425 2.72915303 108.13124544 2.68605727 115.22619033 C2.66072999 119.45430453 2.6416519 123.682214 2.63868141 127.91040802 C2.63549195 131.89971347 2.6131608 135.88848875 2.57712555 139.87762833 C2.5671447 141.32863198 2.56362626 142.77969958 2.56765556 144.23073196 C2.6142328 165.01083142 -3.38380599 183.77479791 -18 199 C-26.6192746 207.37806356 -37.67600773 213.01077196 -48 219 C-49.00192383 219.58201172 -50.00384766 220.16402344 -51.03613281 220.76367188 C-57.56281975 224.5496801 -64.10158533 228.31444128 -70.64453125 232.07226562 C-76.14121411 235.23013872 -81.63348662 238.39564778 -87.125 241.5625 C-88.20217285 242.18358643 -89.2793457 242.80467285 -90.38916016 243.44458008 C-98.59401318 248.17938424 -106.77877084 252.9479605 -114.95703125 257.72851562 C-123.41617099 262.66949804 -131.90316754 267.56133937 -140.39672852 272.44287109 C-145.66856086 275.4786139 -150.9234037 278.53789007 -156.14453125 281.66015625 C-157.12212402 282.244021 -158.0997168 282.82788574 -159.10693359 283.42944336 C-160.91898353 284.51489159 -162.72819006 285.60510962 -164.53369141 286.70141602 C-170.43016902 290.23387603 -176.49588145 293.71539922 -183 296 C-183.66 295.67 -184.32 295.34 -185 295 C-184.56589676 286.9943286 -181.59909921 279.93760517 -178.6875 272.5625 C-178.4218927 271.88281158 -178.1562854 271.20312317 -177.88262939 270.50283813 C-166.00114419 240.16944278 -150.96542991 211.76890954 -131 186 C-130.36707031 185.17242187 -129.73414063 184.34484375 -129.08203125 183.4921875 C-123.46084677 176.28316328 -117.28585587 169.62619967 -111 163 C-109.7625 161.68128906 -109.7625 161.68128906 -108.5 160.3359375 C-99.67685741 151.19353646 -89.56049089 143.58736579 -79.0859375 136.4375 C-77.01470188 135.01013163 -75.00231609 133.52212264 -73 132 C-79.04591028 133.84670288 -84.61862601 136.07340738 -90.1875 139.0625 C-90.91654541 139.45171631 -91.64559082 139.84093262 -92.39672852 140.24194336 C-103.43186444 146.27518871 -113.35435066 153.96435473 -123 162 C-123.53093262 162.44069824 -124.06186523 162.88139648 -124.60888672 163.33544922 C-136.52411511 173.26088488 -147.5313027 183.64967899 -157 196 C-157.50370117 196.65436035 -158.00740234 197.3087207 -158.52636719 197.98291016 C-171.64118133 215.12977437 -182.99973609 233.31602568 -193.81787109 251.97558594 C-195.88935216 255.52302934 -198.00730739 259.04251183 -200.125 262.5625 C-200.51598877 263.21275146 -200.90697754 263.86300293 -201.30981445 264.53295898 C-202.20590112 266.02235901 -203.1028452 267.51124313 -204 269 C-207.86993431 267.53344957 -208.9884149 265.73869552 -210.77734375 262.07421875 C-211.28370361 261.06069336 -211.79006348 260.04716797 -212.31176758 259.00292969 C-212.84825928 257.90883789 -213.38475098 256.81474609 -213.9375 255.6875 C-224.10755172 235.61446272 -235.97463439 217.58597295 -250 200 C-250.48645996 199.3822168 -250.97291992 198.76443359 -251.47412109 198.12792969 C-262.85494971 183.74283198 -276.28572414 169.98300534 -291 159 C-291.56106445 158.57315918 -292.12212891 158.14631836 -292.70019531 157.70654297 C-303.59492831 149.42411584 -314.7217403 141.86672988 -327.125 136 C-327.76501953 135.69674805 -328.40503906 135.39349609 -329.06445312 135.08105469 C-331.89946121 133.7853555 -333.84462324 133 -337 133 C-336.33097656 133.41507813 -335.66195312 133.83015625 -334.97265625 134.2578125 C-314.77726982 147.21538929 -296.58437164 163.94758387 -282 183 C-281.21753906 183.97710937 -280.43507813 184.95421875 -279.62890625 185.9609375 C-272.77888452 194.56585674 -266.81775443 203.67467327 -261 213 C-260.59362305 213.64759277 -260.18724609 214.29518555 -259.76855469 214.96240234 C-225 270.6179294 -225 270.6179294 -225 295 C-230.59078644 294.5265132 -234.46032651 293.63544916 -239.4375 290.875 C-240.06253418 290.53009521 -240.68756836 290.18519043 -241.33154297 289.82983398 C-249.72144869 285.13645122 -257.91725546 280.09526608 -266.14453125 275.125 C-273.17072581 270.88643221 -280.23298117 266.71129554 -287.3125 262.5625 C-288.21934036 262.03104874 -288.21934036 262.03104874 -289.14450073 261.48886108 C-300.43754782 254.87641697 -311.79429772 248.37776679 -323.1640625 241.8984375 C-333.02504645 236.27837601 -342.86388449 230.62139332 -352.67773438 224.91943359 C-354.96374085 223.59869705 -357.25252836 222.28542328 -359.54882812 220.98291016 C-384.31121188 206.93633113 -403.21085771 193.61460692 -411.25 164.8125 C-413.11894813 155.31201365 -413.13973627 145.84058133 -413.11352539 136.18701172 C-413.11324278 134.71757509 -413.11340269 133.24813833 -413.1139679 131.77870178 C-413.114253 127.81866386 -413.10840292 123.85865667 -413.10139394 119.89862585 C-413.09511237 115.74932355 -413.09455282 111.60002043 -413.09336853 107.45071411 C-413.09026931 99.60640364 -413.08207504 91.76210723 -413.07201904 83.91780293 C-413.06081399 74.98183005 -413.05533641 66.04585647 -413.05032361 57.1098783 C-413.03989116 38.73991092 -413.02231918 20.36995659 -413 2 C-411.68 2 -410.36 2 -409 2 C-407.61328125 3.46875 -407.61328125 3.46875 -406.3125 5.5 C-387.0287408 32.7747959 -344.78786486 49.68609189 -316.11474609 64.3984375 C-308.71116463 68.20526415 -301.34864845 72.08840529 -294 76 C-292.68008057 76.69923584 -292.68008057 76.69923584 -291.33349609 77.41259766 C-274.5792736 86.3100719 -258.34301979 95.46968413 -244 108 C-242.76056641 109.02287109 -242.76056641 109.02287109 -241.49609375 110.06640625 C-221.7398695 126.85455925 -212.42576064 149.43672226 -206 174 C-206 174.99 -206 175.98 -206 177 C-205.34 177 -204.68 177 -204 177 C-203.88785156 176.03964844 -203.77570313 175.07929688 -203.66015625 174.08984375 C-199.46399583 145.00862762 -182.67247453 119.6317045 -159.82324219 101.75195312 C-138.40580881 85.76312045 -113.50323964 74.40113224 -89.75244141 62.35253906 C-46.94621528 41.22437097 -46.94621528 41.22437097 -9.87109375 11.78515625 C-8 10 -8 10 -6 10 C-5.62875 9.195625 -5.62875 9.195625 -5.25 8.375 C-3.69347463 5.4176018 -1.96564327 2.70275949 0 0 Z " fill="#76CB36" transform="translate(454,162)"/>
<path d="M0 0 C1.7638474 1.02425681 3.52820574 2.04763406 5.29296875 3.0703125 C9.34076666 5.42194898 13.38087197 7.78629693 17.41796875 10.15625 C24.24848966 14.15740914 31.12111377 18.08293195 38 22 C46.80027966 27.01278129 55.57376163 32.0678785 64.3125 37.1875 C72.14906135 41.77836743 80.02223903 46.29619093 87.9375 50.75 C95.87708417 55.21884786 103.77417193 59.74632786 111.60546875 64.40234375 C114.90377293 66.36202808 118.22325502 68.28177939 121.55078125 70.19140625 C153.43302234 88.57656425 153.43302234 88.57656425 158.0625 103.6875 C160.41614655 115.36691592 157.28297065 126.28871339 151.13623047 136.31835938 C143.54919626 147.54730042 132.42840146 156.96269349 120.9375 163.9375 C120.05610352 164.47761719 119.17470703 165.01773438 118.26660156 165.57421875 C101.65454989 175.5786283 84.24289447 184.26400508 67.02099609 193.15673828 C55.08370998 199.32480868 43.3354448 205.76073331 31.68847656 212.4609375 C29.090103 213.94841906 26.48074246 215.41439499 23.8671875 216.875 C13.69251086 222.59812966 4.19926183 228.81273405 -5 236 C-5.98484375 236.76054687 -6.9696875 237.52109375 -7.984375 238.3046875 C-19.88077734 247.74787693 -30.08483671 258.39484827 -38.06640625 271.35546875 C-38.70449219 272.22816406 -39.34257812 273.10085938 -40 274 C-40.99 274 -41.98 274 -43 274 C-44.18359375 272.3046875 -44.18359375 272.3046875 -45.4375 269.875 C-48.17140141 265.07016827 -51.33744326 260.97780869 -54.9375 256.8125 C-55.42726318 256.24321777 -55.91702637 255.67393555 -56.42163086 255.08740234 C-80.64809207 227.38974661 -115.65882235 211.05495156 -147.6875 194.125 C-148.40465179 193.7458847 -149.12180359 193.36676941 -149.86068726 192.97616577 C-156.96298039 189.22368941 -164.07079233 185.48219206 -171.19378662 181.76914978 C-229.27721973 151.46442451 -229.27721973 151.46442451 -240.3125 122.5625 C-242.32768663 112.12016927 -241.02149805 103.09899393 -235.1171875 94.14453125 C-227.08556193 83.70917544 -216.29470334 77.33946816 -204.9375 70.9375 C-203.22104068 69.95863565 -201.5045872 68.97976088 -199.78848267 68.00027466 C-198.02398267 66.9941773 -196.2579596 65.99079605 -194.49169922 64.98779297 C-188.97822028 61.85343498 -183.49077733 58.67389344 -178 55.5 C-175.83083486 54.24851471 -173.66156381 52.99721296 -171.4921875 51.74609375 C-167.18398349 49.26069098 -162.87677211 46.77358023 -158.5703125 44.28515625 C-146.81133009 37.49234602 -135.03736661 30.72667644 -123.24212646 23.99707031 C-115.68257478 19.6837889 -108.13357012 15.35304447 -100.59838867 10.99731445 C-97.33979656 9.11438755 -94.07828496 7.23660095 -90.81640625 5.359375 C-87.29018108 3.32872614 -83.77623392 1.28047257 -80.27734375 -0.796875 C-72.47282211 -5.38707925 -64.87453709 -8.89714777 -56 -11 C-54.87078125 -11.28423828 -54.87078125 -11.28423828 -53.71875 -11.57421875 C-33.86756629 -14.68309666 -16.9933075 -10.01797001 0 0 Z M-72.85546875 121.5 C-80.36046046 130.24898851 -84.58690762 142.04720732 -84.24609375 153.5546875 C-83.03313872 165.60722479 -78.26905942 175.73328055 -69.484375 184.109375 C-58.39009961 192.55218835 -46.68440312 195.20262834 -33 194 C-25.12358668 192.43366781 -18.95275731 189.33294744 -13 184 C-12.39542969 183.49855469 -11.79085937 182.99710937 -11.16796875 182.48046875 C-2.54389395 174.75825798 1.13352896 164.01129877 2.21484375 152.765625 C2.67868176 142.30143958 -1.1744331 133.47627473 -7 125 C-7.721875 123.948125 -8.44375 122.89625 -9.1875 121.8125 C-17.44556148 113.55443852 -28.37483875 107.96045065 -40.125 107.75 C-52.75109334 107.902735 -63.65717202 112.99439462 -72.85546875 121.5 Z " fill="#29B3E6" transform="translate(290,14)"/>
<path d="M0 0 C0.66 0 1.32 0 2 0 C3.06787237 3.47475094 3.1141411 6.6562288 3.0957489 10.28034973 C3.09159973 11.57151199 3.08745056 12.86267426 3.08317566 14.19296265 C3.073383 15.62188797 3.06347621 17.05081251 3.0534668 18.47973633 C3.04659542 19.98618897 3.04014638 21.4926436 3.03408813 22.99909973 C3.0161714 27.09014873 2.99160931 31.18113212 2.96532798 35.27213502 C2.94382596 38.68899249 2.92517225 42.10586337 2.90639621 45.52273673 C2.86188507 53.58623765 2.81159634 61.64968919 2.75805664 69.71313477 C2.70299181 78.02570285 2.65897845 86.33827923 2.62020558 94.65093786 C2.58643056 101.7916695 2.54509602 108.93233142 2.49788028 116.07298678 C2.46981037 120.33597653 2.44474208 124.59893124 2.4272213 128.86197853 C2.4104611 132.87327625 2.38426471 136.88440447 2.35091019 140.89559746 C2.34027158 142.36490462 2.33294735 143.83424023 2.32924461 145.30358124 C2.32364688 147.31533305 2.30471875 149.32703441 2.28520203 151.33869934 C2.27837245 152.46270047 2.27154287 153.5867016 2.26450634 154.74476337 C1.96488212 158.43219003 1.12039311 161.48237675 0 165 C-0.99 164.67 -1.98 164.34 -3 164 C-2.85825914 163.43932894 -2.71651829 162.87865788 -2.57048225 162.30099678 C-0.86918035 154.86152474 -0.72966464 147.71260895 -0.77294922 140.10498047 C-0.77351455 138.73406482 -0.77319439 137.36314857 -0.77206421 135.99223328 C-0.77149446 132.30074024 -0.78318691 128.60937932 -0.79721212 124.91791677 C-0.8097831 121.04889199 -0.81089497 117.17986359 -0.81326294 113.31082153 C-0.81945911 105.99772836 -0.83584449 98.68469556 -0.85596192 91.37162888 C-0.87837919 83.04024599 -0.88932895 74.7088601 -0.89935279 66.37745452 C-0.92021253 49.25160153 -0.95535196 32.12580716 -1 15 C-1.66 14.67 -2.32 14.34 -3 14 C-3 13.34 -3 12.68 -3 12 C-3.99 12.495 -3.99 12.495 -5 13 C-5.33 13.99 -5.66 14.98 -6 16 C-8.0625 16.6875 -8.0625 16.6875 -10 17 C-7.12928862 10.92875083 -4.22124928 5.24803964 0 0 Z " fill="#56B351" transform="translate(454,162)"/>
<path d="M0 0 C-2.86850036 6.14678649 -7.01887509 7.46632903 -13 10 C-14.3921875 10.61875 -14.3921875 10.61875 -15.8125 11.25 C-18 12 -18 12 -22 12 C-22 12.66 -22 13.32 -22 14 C-23.6796875 15.40234375 -23.6796875 15.40234375 -25.875 16.9375 C-28.67496035 18.89947938 -30.06062762 20.09094143 -32 23 C-33.32 23 -34.64 23 -36 23 C-36.1546875 23.8971875 -36.1546875 23.8971875 -36.3125 24.8125 C-37.09824033 27.31258286 -37.96918853 28.37535082 -40 30 C-40.66 30 -41.32 30 -42 30 C-42.20496094 30.77085938 -42.40992188 31.54171875 -42.62109375 32.3359375 C-43.02521484 33.84027344 -43.02521484 33.84027344 -43.4375 35.375 C-43.70433594 36.37273437 -43.97117187 37.37046875 -44.24609375 38.3984375 C-45 41 -45 41 -46 43 C-46.30351789 48.04375319 -46.308639 53.09260374 -45 58 C-43.68 58.33 -42.36 58.66 -41 59 C-40.93941406 59.60328125 -40.87882812 60.2065625 -40.81640625 60.828125 C-40.73261719 61.62734375 -40.64882813 62.4265625 -40.5625 63.25 C-40.48128906 64.03890625 -40.40007813 64.8278125 -40.31640625 65.640625 C-40.02365007 67.82364639 -39.57935581 69.8773182 -39 72 C-37.02 71.01 -37.02 71.01 -35 70 C-33.93347808 72.30368736 -32.93578995 74.64018187 -32 77 C-32.33 77.66 -32.66 78.32 -33 79 C-39.03193172 77.01349762 -41.66942279 73.22924356 -45 68 C-49.81230103 58.1008222 -51.95953842 48.26243537 -48.5625 37.5 C-42.23585875 21.99309261 -28.19910055 14.20783791 -14.5625 6 C-13.59030518 5.41105957 -12.61811035 4.82211914 -11.61645508 4.21533203 C-10.69243896 3.66989746 -9.76842285 3.12446289 -8.81640625 2.5625 C-7.57032593 1.82193359 -7.57032593 1.82193359 -6.29907227 1.06640625 C-4 0 -4 0 0 0 Z " fill="#6DA6D2" transform="translate(99,79)"/>
<path d="M0 0 C3.53233755 1.17744585 3.86308075 1.95605641 5.6875 5.0625 C6.12449219 5.79597656 6.56148437 6.52945313 7.01171875 7.28515625 C7.33785156 7.85105469 7.66398437 8.41695312 8 9 C5.69 8.34 3.38 7.68 1 7 C1 57.49 1 107.98 1 160 C0.67 160 0.34 160 0 160 C-1.06221766 151.7319536 -1.14241904 143.52781205 -1.12939453 135.20288086 C-1.1307521 133.73506629 -1.13253402 132.26725207 -1.13470459 130.79943848 C-1.13923301 126.84346949 -1.13750936 122.88752681 -1.1343255 118.93155742 C-1.13178238 114.78539001 -1.13414447 110.63922475 -1.13571167 106.49305725 C-1.13752584 99.54232379 -1.1351449 92.59160098 -1.13037109 85.64086914 C-1.12491062 77.59726455 -1.12670704 69.55368523 -1.1321975 61.51008123 C-1.13672712 54.5978171 -1.1373805 47.6855606 -1.13475883 40.77329546 C-1.1331977 36.6469494 -1.13299823 32.52061525 -1.13629532 28.39426994 C-1.13917248 24.52416413 -1.13720127 20.65409119 -1.13140106 16.78398895 C-1.13007345 15.36051297 -1.1304676 13.93703425 -1.13266373 12.51355934 C-1.13537467 10.57890036 -1.13138091 8.64423535 -1.12698364 6.70957947 C-1.1264181 5.08227858 -1.1264181 5.08227858 -1.12584114 3.42210293 C-1 1 -1 1 0 0 Z " fill="#C1E3A7" transform="translate(42,163)"/>
<path d="M0 0 C0.66 0 1.32 0 2 0 C3.06999837 3.47779707 3.11159869 6.65961646 3.08901978 10.28707886 C3.08342545 11.57968628 3.07783112 12.8722937 3.07206726 14.20407104 C3.06067988 15.63458334 3.04918645 17.06509479 3.03759766 18.49560547 C3.02908904 20.00368011 3.02101785 21.51175727 3.01335144 23.01983643 C2.99116175 27.11495323 2.96248637 31.21000113 2.93239641 35.30506659 C2.9017222 39.59171467 2.87610472 43.87839347 2.84970093 48.16506958 C2.80451092 55.36609659 2.75503758 62.56708494 2.703125 69.76806641 C2.64320204 78.08860881 2.59040243 86.40917366 2.54135668 94.72978675 C2.49396338 102.73670975 2.44114802 110.74358856 2.38599777 118.75046158 C2.36265625 122.15620178 2.3412756 125.56194592 2.32149124 128.96770859 C2.29795577 132.9814135 2.26968746 136.99505814 2.23780251 141.00870514 C2.22687635 142.4800542 2.217576 143.95141639 2.21003914 145.42278671 C2.19946294 147.43487077 2.18235804 149.44691733 2.16494751 151.45895386 C2.15332046 153.14633824 2.15332046 153.14633824 2.14145851 154.8678112 C2.00065817 157.98542667 1.57903143 160.9360719 1 164 C0.67 164 0.34 164 0 164 C0.00092179 163.23247091 0.00184359 162.46494183 0.00279331 161.67415428 C0.02488099 142.99549168 0.04142741 124.31683168 0.05181217 105.6381588 C0.05696769 96.60528469 0.06399624 87.5724193 0.07543945 78.53955078 C0.08540899 70.66619188 0.09185885 62.79283929 0.09408849 54.91947424 C0.09539173 50.7508978 0.0984532 46.58233942 0.10573006 42.41376877 C0.11252606 38.48879333 0.11460966 34.56384337 0.11310768 30.63886261 C0.1133824 29.19975521 0.11536626 27.76064695 0.11920547 26.32154465 C0.12419859 24.35307179 0.1223846 22.38458521 0.12025452 20.41610718 C0.12117631 19.31548635 0.1220981 18.21486553 0.12304783 17.08089256 C-0.00090741 13.97728017 -0.4222348 11.04904849 -1 8 C-2.65 8.66 -4.3 9.32 -6 10 C-4.34643078 6.41726669 -2.32019297 3.19026533 0 0 Z " fill="#90C388" transform="translate(454,162)"/>
<path d="M0 0 C1 3 1 3 0.171875 5.27734375 C-7.33546152 19.3226629 -19.21399923 30.3909383 -32.4375 39.0625 C-33.05343018 39.46944092 -33.66936035 39.87638184 -34.30395508 40.2956543 C-35.82872936 41.26415222 -37.41091231 42.14109072 -39 43 C-39.66 42.67 -40.32 42.34 -41 42 C-38.16569547 38.7457985 -36.31392226 37.4793247 -32 37 C-31.95875 35.948125 -31.9175 34.89625 -31.875 33.8125 C-30.72809692 28.81527945 -29.09775342 27.87714602 -25 25 C-24.67 25.99 -24.34 26.98 -24 28 C-23.01 28 -22.02 28 -21 28 C-21 27.01 -21 26.02 -21 25 C-20.34 24.67 -19.68 24.34 -19 24 C-18.9175 23.360625 -18.835 22.72125 -18.75 22.0625 C-18.5025 21.381875 -18.255 20.70125 -18 20 C-17.071875 19.73960937 -16.14375 19.47921875 -15.1875 19.2109375 C-11.22463265 17.70543642 -10.34649061 16.18327391 -8.25 12.5625 C-7.39148438 11.11037109 -7.39148438 11.11037109 -6.515625 9.62890625 C-6.01546875 8.76136719 -5.5153125 7.89382812 -5 7 C-4.34 6.01 -3.68 5.02 -3 4 C-2.34 4 -1.68 4 -1 4 C-0.67 2.68 -0.34 1.36 0 0 Z " fill="#5ADAEA" transform="translate(445,138)"/>
<path d="M0 0 C4.75 0.875 4.75 0.875 7 2 C7 2.66 7 3.32 7 4 C5.35 3.67 3.7 3.34 2 3 C2 55.14 2 107.28 2 161 C-0.0799111 156.8401778 -0.24774782 155.09013505 -0.24050903 150.55865479 C-0.24221788 149.91411937 -0.24392673 149.26958395 -0.24568737 148.60551715 C-0.24897876 146.44816096 -0.2379846 144.29111655 -0.22705078 142.13378906 C-0.22648659 140.58642077 -0.22680338 139.03905194 -0.22793579 137.49168396 C-0.22851 133.29159469 -0.21674468 129.09161948 -0.20278788 124.89155674 C-0.19029187 120.50199015 -0.18911091 116.11242099 -0.18673706 111.72283936 C-0.18051897 103.4108198 -0.16410369 95.09885281 -0.14403808 86.78685641 C-0.12168932 77.32383137 -0.11068822 67.86080382 -0.10064721 58.39775896 C-0.07973776 38.9318095 -0.04455538 19.46590897 0 0 Z " fill="#87C64E" transform="translate(43,170)"/>
<path d="M0 0 C0.66 0 1.32 0 2 0 C2.33 0.99 2.66 1.98 3 3 C2.67 3.66 2.34 4.32 2 5 C1.69648211 10.04375319 1.691361 15.09260374 3 20 C4.32 20.33 5.64 20.66 7 21 C7.06058594 21.60328125 7.12117188 22.2065625 7.18359375 22.828125 C7.26738281 23.62734375 7.35117187 24.4265625 7.4375 25.25 C7.55931641 26.43335938 7.55931641 26.43335938 7.68359375 27.640625 C7.97634993 29.82364639 8.42064419 31.8773182 9 34 C10.32 33.34 11.64 32.68 13 32 C14.06652192 34.30368736 15.06421005 36.64018187 16 39 C15.67 39.66 15.34 40.32 15 41 C8.96806828 39.01349762 6.33057721 35.22924356 3 30 C-0.08621858 23.65147229 -2.13839183 17.64389859 -2.1875 10.5625 C-2.20167969 9.63566406 -2.21585938 8.70882812 -2.23046875 7.75390625 C-1.98507562 4.82166627 -1.22201577 2.66138611 0 0 Z " fill="#5398D0" transform="translate(51,117)"/>
<path d="M0 0 C3.84258202 0.77652178 5.27500786 2.18985186 8 5 C10.13309192 6.23512079 10.13309192 6.23512079 12 7 C11.67 7.99 11.34 8.98 11 10 C12.051875 10.1546875 12.051875 10.1546875 13.125 10.3125 C16.44209227 11.10571772 19.06538379 12.2659086 22 14 C22.33 14.99 22.66 15.98 23 17 C24.91666667 17.83333333 24.91666667 17.83333333 27 18 C27.66 17.67 28.32 17.34 29 17 C29 17.99 29 18.98 29 20 C29.66 20 30.32 20 31 20 C31.33 20.66 31.66 21.32 32 22 C34.32243283 23.0683191 36.63033933 24.05027352 39 25 C40.31394167 25.55912412 41.62652393 26.12145738 42.9375 26.6875 C43.948125 27.120625 44.95875 27.55375 46 28 C45.505 29.485 45.505 29.485 45 31 C39.50053601 29.44886913 34.89483298 26.86676957 30 24 C29.16637939 23.51233154 28.33275879 23.02466309 27.47387695 22.5222168 C6.26440664 9.94935172 6.26440664 9.94935172 0 0 Z " fill="#66ABD6" transform="translate(67,160)"/>
<path d="M0 0 C-4.81916948 4.27909014 -10.3926589 7.15022257 -16 10.25 C-23.71774283 14.55353125 -31.32917154 18.94009009 -38.76953125 23.70703125 C-41 25 -41 25 -43 25 C-43 24.01 -43 23.02 -43 22 C-42.05125 21.938125 -41.1025 21.87625 -40.125 21.8125 C-39.09375 21.544375 -38.0625 21.27625 -37 21 C-35.43714045 18.16611977 -35.43714045 18.16611977 -35 15 C-35.33 14.01 -35.66 13.02 -36 12 C-34.865625 11.896875 -33.73125 11.79375 -32.5625 11.6875 C-26.71653603 10.95157191 -21.25185755 9.35111453 -16.1875 6.3125 C-14 5 -14 5 -10 5 C-10 4.34 -10 3.68 -10 3 C-6.58168085 0.4606772 -4.24223102 -0.3636198 0 0 Z " fill="#A2D35E" transform="translate(332,423)"/>
<path d="M0 0 C0.495 0.99 0.495 0.99 1 2 C-0.3899131 4.77982621 -2.18658353 4.87463341 -5 6 C-5.33 6.66 -5.66 7.32 -6 8 C-8.06640625 8.4140625 -8.06640625 8.4140625 -10.5625 8.625 C-11.80193359 8.73714844 -11.80193359 8.73714844 -13.06640625 8.8515625 C-14.02353516 8.92503906 -14.02353516 8.92503906 -15 9 C-15.33 9.99 -15.66 10.98 -16 12 C-17.85546875 13.4296875 -17.85546875 13.4296875 -20.1875 14.875 C-23.06802074 16.70556865 -25.71453599 18.52859639 -28.25 20.8125 C-31.00279086 23.00222 -32.54643776 23.69527392 -36 24 C-28.46985073 16.29378609 -20.11106972 9.73659945 -11 4 C-11.66 3.67 -12.32 3.34 -13 3 C-13 2.34 -13 1.68 -13 1 C-11.39796533 0.63631108 -9.79325797 0.28438048 -8.1875 -0.0625 C-7.29417969 -0.25972656 -6.40085937 -0.45695312 -5.48046875 -0.66015625 C-3 -1 -3 -1 0 0 Z " fill="#7CC658" transform="translate(392,290)"/>
<path d="M0 0 C-0.73605469 0.845625 -1.47210938 1.69125 -2.23046875 2.5625 C-8.59483735 9.83045409 -8.59483735 9.83045409 -14 17.8125 C-14.66 18.864375 -15.32 19.91625 -16 21 C-16.99 21 -17.98 21 -19 21 C-20.5 18.98828125 -20.5 18.98828125 -22 16.3125 C-22.495 15.44238281 -22.99 14.57226562 -23.5 13.67578125 C-23.995 12.79277344 -24.49 11.90976562 -25 11 C-25.99491511 9.33029293 -26.9933994 7.66268849 -28 6 C-25.625 6.6875 -25.625 6.6875 -23 8 C-21.6875 10.625 -21.6875 10.625 -21 13 C-16.19681945 11.89157372 -13.04882664 10.98692714 -10 7 C-9.2127322 4.8618034 -9.2127322 4.8618034 -9 3 C-8.01 3 -7.02 3 -6 3 C-6 2.01 -6 1.02 -6 0 C-3 -1 -3 -1 0 0 Z " fill="#5FC0DE" transform="translate(266,267)"/>
<path d="M0 0 C11.15511439 4.8408987 22.31462614 13.28911633 27.16015625 24.7421875 C29.62210511 32.77815911 28.67151136 39.87092319 27 48 C26.67 48 26.34 48 26 48 C26.01047363 47.44538086 26.02094727 46.89076172 26.03173828 46.31933594 C26.07342004 43.79627041 26.09936438 41.27327747 26.125 38.75 C26.14175781 37.87730469 26.15851563 37.00460938 26.17578125 36.10546875 C26.18222656 35.26113281 26.18867188 34.41679688 26.1953125 33.546875 C26.20578613 32.77182617 26.21625977 31.99677734 26.22705078 31.19824219 C25.96642569 28.67494289 25.39742361 27.11442326 24 25 C23.01 24.67 22.02 24.34 21 24 C20.7525 23.319375 20.505 22.63875 20.25 21.9375 C16.61223071 13.38874217 8.23119115 6.90570932 0 3 C0 2.01 0 1.02 0 0 Z " fill="#78E1EC" transform="translate(420,90)"/>
<path d="M0 0 C0.75015381 0.00128906 1.50030762 0.00257812 2.27319336 0.00390625 C8.14667854 0.10516232 13.35360485 1.05919684 18.8125 3.3125 C18.8125 4.3025 18.8125 5.2925 18.8125 6.3125 C18.07386719 6.0959375 17.33523438 5.879375 16.57421875 5.65625 C3.52052886 2.0735346 -8.06159445 2.20162672 -20.125 8.875 C-20.81464844 9.28878906 -21.50429687 9.70257813 -22.21484375 10.12890625 C-24.1630406 11.29782436 -26.14444275 12.32068026 -28.1875 13.3125 C-28.1875 12.3225 -28.1875 11.3325 -28.1875 10.3125 C-27.1975 10.3125 -26.2075 10.3125 -25.1875 10.3125 C-25.1875 9.3225 -25.1875 8.3325 -25.1875 7.3125 C-24.5275 6.9825 -23.8675 6.6525 -23.1875 6.3125 C-23.1875 5.3225 -23.1875 4.3325 -23.1875 3.3125 C-22.52363281 3.26351562 -21.85976562 3.21453125 -21.17578125 3.1640625 C-20.29277344 3.08929688 -19.40976563 3.01453125 -18.5 2.9375 C-17.62988281 2.86789063 -16.75976562 2.79828125 -15.86328125 2.7265625 C-13.18321251 2.42943881 -13.18321251 2.42943881 -10.8671875 1.29296875 C-7.25359703 -0.02920502 -3.79780246 -0.02686629 0 0 Z " fill="#59B8D7" transform="translate(248.1875,119.6875)"/>
<path d="M0 0 C0.80791992 -0.0112793 1.61583984 -0.02255859 2.44824219 -0.03417969 C3.30579102 -0.02418945 4.16333984 -0.01419922 5.046875 -0.00390625 C6.3757373 0.00527832 6.3757373 0.00527832 7.73144531 0.01464844 C19.07696224 0.27925504 29.92202228 2.673263 39.796875 8.43359375 C39.796875 8.76359375 39.796875 9.09359375 39.796875 9.43359375 C35.86833792 9.65808158 33.40608149 8.89446304 29.796875 7.43359375 C28.600625 7.26859375 27.404375 7.10359375 26.171875 6.93359375 C22.796875 6.43359375 22.796875 6.43359375 19.796875 4.43359375 C16.7926043 4.06432329 16.7926043 4.06432329 13.37890625 4.01953125 C12.12529297 3.98085937 10.87167969 3.9421875 9.58007812 3.90234375 C8.26974609 3.87140625 6.95941406 3.84046875 5.609375 3.80859375 C4.2740634 3.77040037 2.93877608 3.73134784 1.60351562 3.69140625 C-1.66522388 3.59700222 -4.93395564 3.51142358 -8.203125 3.43359375 C-5.40761711 1.06354047 -3.67418276 0.05008744 0 0 Z " fill="#5CBDDA" transform="translate(243.203125,1.56640625)"/>
<path d="M0 0 C1.29201478 4.22673405 0.44299785 6.81530624 -1 11 C-1.7734375 12.4540625 -1.7734375 12.4540625 -2.5625 13.9375 C-4.34540104 17.7358544 -4.64087518 20.83415208 -5 25 C-3.68 25.33 -2.36 25.66 -1 26 C-1.33 24.02 -1.66 22.04 -2 20 C-0.824375 20.309375 -0.824375 20.309375 0.375 20.625 C1.674375 20.810625 1.674375 20.810625 3 21 C3.66 20.34 4.32 19.68 5 19 C8.125 19.375 8.125 19.375 11 20 C7.33122282 23.15941599 3.70742748 25.29293811 -0.6875 27.3125 C-1.82574219 27.84488281 -2.96398437 28.37726563 -4.13671875 28.92578125 C-5.08160156 29.28027344 -6.02648437 29.63476562 -7 30 C-7.66 29.67 -8.32 29.34 -9 29 C-8.48864775 22.11703639 -6.48692361 16.3845669 -3.9375 10 C-3.37192383 8.55173828 -3.37192383 8.55173828 -2.79492188 7.07421875 C-1.87140115 4.71281132 -0.93964767 2.3550259 0 0 Z " fill="#AAD45E" transform="translate(278,428)"/>
<path d="M0 0 C2.34151186 2.8866922 3.80969468 5.61199835 5.15625 9.0703125 C5.53910156 10.05 5.92195312 11.0296875 6.31640625 12.0390625 C6.70699219 13.05742187 7.09757813 14.07578125 7.5 15.125 C7.89058594 16.12015625 8.28117188 17.1153125 8.68359375 18.140625 C15 34.43142361 15 34.43142361 15 40 C6.42857143 39.28571429 6.42857143 39.28571429 3 36 C5.64 36.33 8.28 36.66 11 37 C10.68954268 35.0830014 10.37655329 33.16641277 10.0625 31.25 C9.88847656 30.18265625 9.71445313 29.1153125 9.53515625 28.015625 C9.11295829 25.63652407 8.62797116 23.33084789 8 21 C6.68 20.67 5.36 20.34 4 20 C3.80664062 19.20335937 3.61328125 18.40671875 3.4140625 17.5859375 C1.7831966 10.92263 1.7831966 10.92263 -0.25 4.375 C-1 2 -1 2 0 0 Z " fill="#D9EEA7" transform="translate(214,417)"/>
<path d="M0 0 C0.99 0.33 1.98 0.66 3 1 C2.62488281 1.43828125 2.24976563 1.8765625 1.86328125 2.328125 C-6.8086389 13.07518978 -9.96838956 24.9803947 -8.7734375 38.578125 C-8.53755594 40.72127748 -8.27160867 42.86108172 -8 45 C-8.66 45 -9.32 45 -10 45 C-12.32492213 39.4897515 -12.23374511 34.48887115 -12.125 28.625 C-12.11597656 27.69816406 -12.10695312 26.77132812 -12.09765625 25.81640625 C-12.07422937 23.54399923 -12.04142748 21.2721382 -12 19 C-11.34 19 -10.68 19 -10 19 C-9.34 16.03 -8.68 13.06 -8 10 C-7.34 10 -6.68 10 -6 10 C-5.67 7.69 -5.34 5.38 -5 3 C-4.34 3 -3.68 3 -3 3 C-1.37485532 1.54166642 -1.37485532 1.54166642 0 0 Z " fill="#74C1DF" transform="translate(216,134)"/>
<path d="M0 0 C1.43836751 0.11458693 2.87570966 0.24209116 4.3125 0.375 C5.51326172 0.47941406 5.51326172 0.47941406 6.73828125 0.5859375 C9 1 9 1 12 3 C12 3.66 12 4.32 12 5 C12.66 5.103125 13.32 5.20625 14 5.3125 C17.78428422 6.1797318 21.50292411 7.29231574 25 9 C25.33 9.66 25.66 10.32 26 11 C28.31254012 12.04718798 30.6485148 13.04346365 33 14 C34.34013497 14.65288627 35.67741528 15.31225595 37 16 C37 16.66 37 17.32 37 18 C39.31 18.66 41.62 19.32 44 20 C42.44433594 21.21142578 42.44433594 21.21142578 40 22 C37.43226898 21.00109656 35.2695475 19.9612593 32.890625 18.6171875 C32.20498474 18.24651154 31.51934448 17.87583557 30.81292725 17.493927 C28.61679059 16.30247905 26.43349113 15.08944064 24.25 13.875 C22.79508783 13.07923362 21.33936611 12.28494544 19.8828125 11.4921875 C17.81305671 10.3655956 15.74462663 9.23722898 13.68267822 8.09640503 C9.17854628 5.60782765 4.61452214 3.27783661 0 1 C0 0.67 0 0.34 0 0 Z " fill="#64ADD6" transform="translate(117,194)"/>
<path d="M0 0 C-0.375 1.9375 -0.375 1.9375 -1 4 C-1.99 4.495 -1.99 4.495 -3 5 C-3.144375 5.66 -3.28875 6.32 -3.4375 7 C-3.623125 7.66 -3.80875 8.32 -4 9 C-7 10 -7 10 -9 10 C-13.08538031 11.04387511 -13.08538031 11.04387511 -16.4375 13.4375 C-19.67909998 16.67909998 -24.56139236 18.11227847 -29 19 C-29 18.01 -29 17.02 -29 16 C-26.55322266 14.19067383 -26.55322266 14.19067383 -23.1640625 12.20703125 C-22.56951263 11.85613937 -21.97496277 11.5052475 -21.36239624 11.14372253 C-20.10272866 10.40316961 -18.83989551 9.6679793 -17.57421875 8.93774414 C-15.63342284 7.81736233 -13.70288497 6.68080791 -11.7734375 5.54101562 C-2.31196573 0 -2.31196573 0 0 0 Z " fill="#5DBC55" transform="translate(413,198)"/>
<path d="M0 0 C0.99 0.33 1.98 0.66 3 1 C-4.56388117 6.78781021 -12.35050198 11.75806431 -20.62792969 16.43945312 C-22.53111507 17.517627 -24.4258307 18.60974391 -26.3203125 19.703125 C-27.5359845 20.39666456 -28.75211317 21.08940439 -29.96875 21.78125 C-31.05607422 22.40064453 -32.14339844 23.02003906 -33.26367188 23.65820312 C-36 25 -36 25 -39 25 C-39 24.34 -39 23.68 -39 23 C-38.34 23 -37.68 23 -37 23 C-37 22.34 -37 21.68 -37 21 C-35.75539217 20.32332002 -34.50403104 19.65905281 -33.25 19 C-32.20585937 18.443125 -32.20585937 18.443125 -31.140625 17.875 C-29 17 -29 17 -25 17 C-25 16.34 -25 15.68 -25 15 C-22.69 14.34 -20.38 13.68 -18 13 C-18 12.34 -18 11.68 -18 11 C-17.01 11 -16.02 11 -15 11 C-15 10.34 -15 9.68 -15 9 C-9.375 6 -9.375 6 -6 6 C-6 5.01 -6 4.02 -6 3 C-5.195625 2.690625 -4.39125 2.38125 -3.5625 2.0625 C-1.10919595 1.23664655 -1.10919595 1.23664655 0 0 Z " fill="#95CE64" transform="translate(428,364)"/>
<path d="M0 0 C4.00990777 1.55222236 7.91048854 3.30377723 11.81640625 5.09765625 C21.69137035 9.17836592 33.72433508 7.78420018 43.44921875 4.0703125 C44.71185547 3.54050781 44.71185547 3.54050781 46 3 C47.66666667 2.33333333 49.33333333 1.66666667 51 1 C51 1.66 51 2.32 51 3 C48.35261084 4.4606285 47.10551666 5 44 5 C43.67 5.99 43.34 6.98 43 8 C37.30204777 10.26848768 31.70303766 10.3984269 25.625 10.4375 C24.73039062 10.47037109 23.83578125 10.50324219 22.9140625 10.53710938 C16.90103075 10.58517867 13.04258579 9.44862533 7.98583984 6.17602539 C6.05242817 4.90060953 6.05242817 4.90060953 3.82275391 4.47045898 C2 4 2 4 0.75 1.9375 C0.5025 1.298125 0.255 0.65875 0 0 Z " fill="#6AC1DD" transform="translate(223,200)"/>
<path d="M0 0 C3.73487777 0.4979837 5.81237635 0.87491756 9 3 C9 3.66 9 4.32 9 5 C9.53625 4.731875 10.0725 4.46375 10.625 4.1875 C11.40875 4.125625 12.1925 4.06375 13 4 C14.32791887 5.19172207 15.65120422 6.38905566 16.94921875 7.61328125 C19.72882051 9.49282149 22.50664622 10.05611575 25.75 10.875 C31.64188197 12.49711085 31.64188197 12.49711085 33.28515625 14.8046875 C33.8125 16.75 33.8125 16.75 34 20 C28.20256419 17.84214714 23.01945834 14.695916 17.67919922 11.60522461 C15.87674474 10.56350836 14.06947683 9.53052559 12.26171875 8.49804688 C11.12089844 7.83998047 9.98007813 7.18191406 8.8046875 6.50390625 C7.76296387 5.90392822 6.72124023 5.3039502 5.64794922 4.68579102 C3.4165259 3.26517715 1.74398627 1.9645118 0 0 Z " fill="#B1D862" transform="translate(164,422)"/>
<path d="M0 0 C0.33 0.66 0.66 1.32 1 2 C1.99 2.33 2.98 2.66 4 3 C4 3.66 4 4.32 4 5 C4.66 5.33 5.32 5.66 6 6 C6.73075648 8.3140622 7.40138258 10.64828869 8 13 C9.65 13 11.3 13 13 13 C12.79375 13.721875 12.5875 14.44375 12.375 15.1875 C11.93584572 18.48115707 12.66396516 20.01356919 14 23 C14 23.99 14 24.98 14 26 C14.66 26 15.32 26 16 26 C16 27.65 16 29.3 16 31 C12.53679546 26.96221834 10.02756285 22.70786722 7.5 18.0625 C4.30866195 12.22732148 4.30866195 12.22732148 0.703125 6.64453125 C-1 4 -1 4 -0.75 1.625 C-0.5025 1.08875 -0.255 0.5525 0 0 Z " fill="#AEDB6C" transform="translate(224,384)"/>
<path d="M0 0 C2.8125 1 2.8125 1 5 2 C5 2.66 5 3.32 5 4 C6.5778125 3.9071875 6.5778125 3.9071875 8.1875 3.8125 C12.16108064 4.007922 13.91244563 4.5673814 17 7 C17 7.66 17 8.32 17 9 C18.98 9 20.96 9 23 9 C23 9.99 23 10.98 23 12 C23.66 12 24.32 12 25 12 C25 12.66 25 13.32 25 14 C21.02669119 12.81874603 17.36502886 11.26337939 13.625 9.5 C9.07731756 7.39869958 4.88635007 6.05870918 0 5 C-2.3420116 4.36086325 -4.6693378 3.67977648 -7 3 C-7 2.34 -7 1.68 -7 1 C-4.44744228 -0.27627886 -2.84227731 -0.19829842 0 0 Z " fill="#A1D86F" transform="translate(112,288)"/>
<path d="M0 0 C0.33 0 0.66 0 1 0 C1 1.65 1 3.3 1 5 C0.34 5 -0.32 5 -1 5 C-1.33 7.64 -1.66 10.28 -2 13 C-2.66 13 -3.32 13 -4 13 C-4.33 15.31 -4.66 17.62 -5 20 C-5.66 20 -6.32 20 -7 20 C-6.96519531 20.59167969 -6.93039062 21.18335938 -6.89453125 21.79296875 C-6.72705554 26.6816646 -6.70249162 30.06835539 -10 34 C-10.66 34 -11.32 34 -12 34 C-11.45673489 27.69088115 -9.9349931 22.34129215 -7.6875 16.4375 C-7.39166016 15.62603516 -7.09582031 14.81457031 -6.79101562 13.97851562 C-4.93332302 9.00728207 -2.75735483 4.53472262 0 0 Z " fill="#95CF68" transform="translate(264,298)"/>
<path d="M0 0 C1.1171875 3.71875 1.1171875 3.71875 0.0625 6.25 C-0.288125 6.8275 -0.63875 7.405 -1 8 C-0.01 8.33 0.98 8.66 2 9 C0.59099426 13.48320008 -1.67434824 15.75546169 -5 19 C-6.49213261 21.29148936 -7.77909909 23.55819818 -9 26 C-9.99 26 -10.98 26 -12 26 C-10.32067048 20.1899059 -7.60791608 14.99131421 -4.875 9.625 C-4.40707031 8.69816406 -3.93914062 7.77132813 -3.45703125 6.81640625 C-2.30830944 4.54240594 -1.15588119 2.27036718 0 0 Z " fill="#A8D76C" transform="translate(296,389)"/>
<path d="M0 0 C0.33 0 0.66 0 1 0 C1.02328249 7.91108517 1.04099555 15.82215575 1.05181217 23.73326683 C1.05700645 27.40763951 1.06404052 31.08198857 1.07543945 34.75634766 C1.08639216 38.30954848 1.09230278 41.86272673 1.09487724 45.41594315 C1.09759431 47.41535436 1.10538622 49.41475664 1.11329651 51.41415405 C1.1137183 58.34176214 0.88298464 65.12547247 0 72 C-0.99 71.67 -1.98 71.34 -3 71 C-2.85748306 70.40302307 -2.71496613 69.80604614 -2.56813049 69.190979 C-1.1471242 62.77968704 -0.74528985 56.78544295 -0.83984375 50.234375 C-0.84504532 49.23851379 -0.85024689 48.24265259 -0.85560608 47.21661377 C-0.8732523 44.06091967 -0.90435228 40.90556619 -0.9375 37.75 C-0.97435093 33.598983 -1.00463077 29.4479936 -1.02734375 25.296875 C-1.03293304 24.30844604 -1.03852234 23.32001709 -1.04428101 22.30163574 C-1.05977486 14.82463024 -0.7384485 7.44486642 0 0 Z " fill="#6CB94F" transform="translate(454,255)"/>
<path d="M0 0 C0.99 0 1.98 0 3 0 C3.78125 1.6171875 3.78125 1.6171875 4 4 C2.57902815 6.22177378 1.18011057 8.11709184 -0.5 10.125 C-1.42768407 11.27581246 -2.35344874 12.42817465 -3.27734375 13.58203125 C-3.73866699 14.1538916 -4.19999023 14.72575195 -4.67529297 15.31494141 C-7.19144396 18.51554482 -9.44455638 21.89794344 -11.72265625 25.26953125 C-12.14417969 25.84058594 -12.56570313 26.41164063 -13 27 C-13.33 27 -13.66 27 -14 27 C-14 25.35 -14 23.7 -14 22 C-13.360625 21.7525 -12.72125 21.505 -12.0625 21.25 C-9.85776431 20.21437874 -9.85776431 20.21437874 -9.375 18.1875 C-9.189375 17.1046875 -9.189375 17.1046875 -9 16 C-8.3530635 14.3255761 -7.69040574 12.65697379 -7 11 C-6.01 11 -5.02 11 -4 11 C-4 9.68 -4 8.36 -4 7 C-3.01 7 -2.02 7 -1 7 C-1.20625 6.401875 -1.4125 5.80375 -1.625 5.1875 C-2 3 -2 3 0 0 Z " fill="#9CD064" transform="translate(294,353)"/>
<path d="M0 0 C0.66 0 1.32 0 2 0 C2 0.66 2 1.32 2 2 C2.99 2 3.98 2 5 2 C9.87960708 9.94678867 10.49449003 17.23396328 10.5 26.375 C10.50580078 27.42107422 10.51160156 28.46714844 10.51757812 29.54492188 C10.42924553 35.0462756 10.20153311 39.30755686 7 44 C6.01 44.495 6.01 44.495 5 45 C5.2165625 44.02160156 5.433125 43.04320312 5.65625 42.03515625 C9.12529953 25.92856094 8.05360759 14.67475534 0 0 Z " fill="#82D4E5" transform="translate(283,139)"/>
<path d="M0 0 C0.66 0 1.32 0 2 0 C2.268125 0.94875 2.53625 1.8975 2.8125 2.875 C3.74986588 6.25267273 3.74986588 6.25267273 7 8 C7 8.66 7 9.32 7 10 C8.65 10 10.3 10 12 10 C11.67 11.32 11.34 12.64 11 14 C11.99 14 12.98 14 14 14 C14 15.32 14 16.64 14 18 C14.99 18.33 15.98 18.66 17 19 C16.34 19.66 15.68 20.32 15 21 C14.39414063 20.3709375 13.78828125 19.741875 13.1640625 19.09375 C7.99003199 13.80827884 2.71291988 8.98972489 -3.1640625 4.49609375 C-3.76992187 4.00238281 -4.37578125 3.50867188 -5 3 C-5 2.67 -5 2.34 -5 2 C-3.35 2 -1.7 2 0 2 C0 1.34 0 0.68 0 0 Z " fill="#62BCDC" transform="translate(217,246)"/>
<path d="M0 0 C5.76315769 1.54803265 10.37456974 4.48278386 15.375 7.625 C16.20644531 8.140625 17.03789062 8.65625 17.89453125 9.1875 C19.93317962 10.45286795 21.96812882 11.72378866 24 13 C23.34 13.66 22.68 14.32 22 15 C22 14.34 22 13.68 22 13 C16.555 12.505 16.555 12.505 11 12 C11 11.34 11 10.68 11 10 C10.34 10 9.68 10 9 10 C8.443125 9.4225 7.88625 8.845 7.3125 8.25 C4.44288349 5.45794069 1.52026705 3.89552841 -2 2 C-1.34 1.34 -0.68 0.68 0 0 Z " fill="#33CCE6" transform="translate(371,62)"/>
<path d="M0 0 C0.66 0.33 1.32 0.66 2 1 C1.01 2.485 1.01 2.485 0 4 C-0.99 4 -1.98 4 -3 4 C-3.04125 4.5775 -3.0825 5.155 -3.125 5.75 C-4.45453129 9.16879475 -6.89666629 10.22666645 -10 12 C-10.66 12 -11.32 12 -12 12 C-12 12.66 -12 13.32 -12 14 C-12.66 14 -13.32 14 -14 14 C-14.226875 14.5775 -14.45375 15.155 -14.6875 15.75 C-16.36684391 18.62887527 -18.22790829 20.17447619 -21 22 C-21.99 21.67 -22.98 21.34 -24 21 C-16.50205398 13.14310975 -8.89994832 6.24889989 0 0 Z " fill="#8ECC71" transform="translate(301,259)"/>
<path d="M0 0 C0.66 0.33 1.32 0.66 2 1 C0.16687967 12.8134421 -5.45439602 23.63621738 -14 32 C-14.33 31.01 -14.66 30.02 -15 29 C-13.71937515 27.2925002 -12.38232443 25.62626404 -11 24 C-10.67 23.01 -10.34 22.02 -10 21 C-9.34 21 -8.68 21 -8 21 C-7.67 19.68 -7.34 18.36 -7 17 C-6.34 17 -5.68 17 -5 17 C-5 15.68 -5 14.36 -5 13 C-4.34 13 -3.68 13 -3 13 C-3.020625 12.05125 -3.04125 11.1025 -3.0625 10.125 C-3 7 -3 7 -2 5 C-1.34 5 -0.68 5 0 5 C0 3.35 0 1.7 0 0 Z " fill="#8FC96B" transform="translate(452,326)"/>
<path d="M0 0 C4.05408292 2.15642709 7.66208704 4.44216963 11.25 7.3125 C16.2416705 11.29549097 21.56544551 14.65800294 27 18 C24 19 24 19 21 18 C20.54109375 17.53335938 20.0821875 17.06671875 19.609375 16.5859375 C17.65862686 14.66359831 15.7315243 13.77328298 13.25 12.625 C8.74839725 10.42363057 4.8258345 8.25602936 1 5 C0.0625 2.1875 0.0625 2.1875 0 0 Z " fill="#8BCA6E" transform="translate(55,177)"/>
<path d="M0 0 C4.09135325 3.77680995 6.66067178 8.6101975 9.5625 13.3125 C10.15224609 14.25029297 10.74199219 15.18808594 11.34960938 16.15429688 C14.14057299 20.65984564 16.67048862 24.81229874 18 30 C17.01 30 16.02 30 15 30 C13.70506805 27.60588163 12.41397828 25.2098212 11.125 22.8125 C10.76019531 22.13896484 10.39539063 21.46542969 10.01953125 20.77148438 C8.47409227 17.8913481 7.05505589 15.1504995 5.9296875 12.07421875 C5.46949219 11.04748047 5.46949219 11.04748047 5 10 C4.01 9.67 3.02 9.34 2 9 C1.26953125 6.93359375 1.26953125 6.93359375 0.8125 4.4375 C0.65394531 3.61121094 0.49539062 2.78492188 0.33203125 1.93359375 C0.16767578 0.97646484 0.16767578 0.97646484 0 0 Z " fill="#9FD15C" transform="translate(185,364)"/>
<path d="M0 0 C0.66 0.33 1.32 0.66 2 1 C1.67 1.66 1.34 2.32 1 3 C0.34 3 -0.32 3 -1 3 C-0.67 4.32 -0.34 5.64 0 7 C-1.32 7.33 -2.64 7.66 -4 8 C-4 7.34 -4 6.68 -4 6 C-5.32 6 -6.64 6 -8 6 C-8.33 6.99 -8.66 7.98 -9 9 C-10.98 9.33 -12.96 9.66 -15 10 C-15 10.66 -15 11.32 -15 12 C-16.98 12 -18.96 12 -21 12 C-16.91413563 8.44393337 -12.62871758 6.07163666 -7.8125 3.6875 C-7.08869141 3.31560547 -6.36488281 2.94371094 -5.61914062 2.56054688 C-3.7777564 1.64071122 -1.89126762 0.81234248 0 0 Z " fill="#79C566" transform="translate(355,229)"/>
<path d="M0 0 C1.98 0 3.96 0 6 0 C1.03325682 3.92068805 -4.57338004 6.69092385 -10.125 9.6875 C-11.23488281 10.29400391 -12.34476562 10.90050781 -13.48828125 11.52539062 C-14.54660156 12.09837891 -15.60492188 12.67136719 -16.6953125 13.26171875 C-17.66484863 13.78725342 -18.63438477 14.31278809 -19.63330078 14.85424805 C-22 16 -22 16 -24 16 C-24 15.01 -24 14.02 -24 13 C-22.02 12.67 -20.04 12.34 -18 12 C-18 11.34 -18 10.68 -18 10 C-16.68 10 -15.36 10 -14 10 C-14 9.34 -14 8.68 -14 8 C-12.35 7.67 -10.7 7.34 -9 7 C-9 6.34 -9 5.68 -9 5 C-7.68 5 -6.36 5 -5 5 C-5 4.34 -5 3.68 -5 3 C-3.35 2.34 -1.7 1.68 0 1 C0 0.67 0 0.34 0 0 Z " fill="#69CFE2" transform="translate(357,203)"/>
<path d="M0 0 C-3.53361325 2.99801938 -7.04589616 5.23912566 -11.1875 7.3125 C-12.23292969 7.84488281 -13.27835937 8.37726563 -14.35546875 8.92578125 C-15.66451172 9.45751953 -15.66451172 9.45751953 -17 10 C-17.66 9.67 -18.32 9.34 -19 9 C-17.52307692 3.33846154 -17.52307692 3.33846154 -14.875 1.625 C-13.946875 1.315625 -13.946875 1.315625 -13 1 C-13 1.66 -13 2.32 -13 3 C-11.96875 2.505 -10.9375 2.01 -9.875 1.5 C-6.47548422 0.02526098 -3.72978451 -0.27291106 0 0 Z " fill="#66D4E8" transform="translate(382,193)"/>
<path d="M0 0 C0.99 0 1.98 0 3 0 C1.71681925 3.42508523 0.23428039 6.44661593 -1.71484375 9.5390625 C-2.49698242 10.78042969 -2.49698242 10.78042969 -3.29492188 12.046875 C-3.83697266 12.89765625 -4.37902344 13.7484375 -4.9375 14.625 C-5.47568359 15.48351562 -6.01386719 16.34203125 -6.56835938 17.2265625 C-10.970888 24.17506637 -10.970888 24.17506637 -14 27 C-14 25.35 -14 23.7 -14 22 C-13.34 22 -12.68 22 -12 22 C-11.67 20.35 -11.34 18.7 -11 17 C-10.34 17 -9.68 17 -9 17 C-9 16.34 -9 15.68 -9 15 C-8.34 15 -7.68 15 -7 15 C-7 14.01 -7 13.02 -7 12 C-6.34 12 -5.68 12 -5 12 C-4.67 10.02 -4.34 8.04 -4 6 C-3.01 5.67 -2.02 5.34 -1 5 C-0.67 3.35 -0.34 1.7 0 0 Z " fill="#A8D46C" transform="translate(277,380)"/>
<path d="M0 0 C1.32 0.66 2.64 1.32 4 2 C3.34 2 2.68 2 2 2 C2 2.66 2 3.32 2 4 C0.88625 4.226875 -0.2275 4.45375 -1.375 4.6875 C-2.57125 5.120625 -3.7675 5.55375 -5 6 C-5.69658363 7.65438613 -6.36096883 9.32254318 -7 11 C-9.68165794 13.04410691 -12.54478497 15 -16 15 C-16 14.01 -16 13.02 -16 12 C-15.05125 11.938125 -14.1025 11.87625 -13.125 11.8125 C-12.09375 11.544375 -11.0625 11.27625 -10 11 C-8.43714045 8.16611977 -8.43714045 8.16611977 -8 5 C-8.33 4.01 -8.66 3.02 -9 2 C-6.94921875 1.77213542 -4.8984375 1.54427083 -2.84765625 1.31640625 C-0.98859771 1.18113386 -0.98859771 1.18113386 0 0 Z " fill="#92D22D" transform="translate(305,433)"/>
<path d="M0 0 C0.99 0.33 1.98 0.66 3 1 C-3.33333333 7.33333333 -9.66666667 13.66666667 -16 20 C-16.625 17.125 -16.625 17.125 -17 14 C-16.34 13.34 -15.68 12.68 -15 12 C-14.01 12.33 -13.02 12.66 -12 13 C-12 12.34 -12 11.68 -12 11 C-11.01 11 -10.02 11 -9 11 C-8.9175 10.401875 -8.835 9.80375 -8.75 9.1875 C-7.78423221 6.37067727 -6.51131433 5.52200868 -4 4 C-3.34 4 -2.68 4 -2 4 C-1.34 2.68 -0.68 1.36 0 0 Z " fill="#92CC62" transform="translate(317,332)"/>
<path d="M0 0 C0.66 0.33 1.32 0.66 2 1 C2 1.99 2 2.98 2 4 C0.35 4.33 -1.3 4.66 -3 5 C-2.67 5.99 -2.34 6.98 -2 8 C-5.50538557 9.96301592 -9.13351728 10.95902388 -13 12 C-12.87109375 9.7421875 -12.87109375 9.7421875 -12 7 C-9.34765625 4.9453125 -9.34765625 4.9453125 -6.0625 3.125 C-4.98097656 2.50882813 -3.89945313 1.89265625 -2.78515625 1.2578125 C-1.86605469 0.84273437 -0.94695312 0.42765625 0 0 Z " fill="#4EB2DF" transform="translate(206,15)"/>
<path d="M0 0 C0.66 0.33 1.32 0.66 2 1 C-4.04818459 7.43839005 -11.04528611 13.10381361 -19 17 C-19.66 16.67 -20.32 16.34 -21 16 C-6.66120219 3.51912568 -6.66120219 3.51912568 0 0 Z " fill="#94CD75" transform="translate(377,297)"/>
<path d="M0 0 C-1.8125 2 -1.8125 2 -4 4 C-4.99 4 -5.98 4 -7 4 C-7.66 5.32 -8.32 6.64 -9 8 C-9.61875 7.835 -10.2375 7.67 -10.875 7.5 C-12.96063386 6.92365356 -12.96063386 6.92365356 -15 7 C-15 7.66 -15 8.32 -15 9 C-16.65 9.66 -18.3 10.32 -20 11 C-19.88671875 9.234375 -19.88671875 9.234375 -19 7 C-16.26953125 5.078125 -16.26953125 5.078125 -12.8125 3.25 C-11.68457031 2.63640625 -10.55664062 2.0228125 -9.39453125 1.390625 C-5.94445451 -0.02275511 -3.6811879 -0.2904731 0 0 Z " fill="#7CC56D" transform="translate(380,219)"/>
<path d="M0 0 C5.68033619 1.17524197 9.18974368 2.66227113 14 6 C16.36234343 7.01920502 18.73572917 7.97119487 21.14453125 8.875 C23 10 23 10 23.76171875 12.125 C23.84035156 12.74375 23.91898438 13.3625 24 14 C18.91720031 12.54214273 14.78181179 10.29890356 10.3125 7.5625 C9.64927734 7.16740234 8.98605469 6.77230469 8.30273438 6.36523438 C5.16591247 4.46671477 2.5342455 2.67815495 0 0 Z " fill="#ADD666" transform="translate(78,372)"/>
<path d="M0 0 C1 3 1 3 0.06640625 5.3828125 C-3.58475163 12.04024843 -7.70616741 17.55837005 -13 23 C-13.6875 21.1875 -13.6875 21.1875 -14 19 C-12.81640625 17.63671875 -12.81640625 17.63671875 -11 16 C-8.88767208 12.87542781 -6.86612625 9.70045517 -4.83984375 6.51953125 C-4.23269531 5.68808594 -3.62554687 4.85664063 -3 4 C-2.34 4 -1.68 4 -1 4 C-0.67 2.68 -0.34 1.36 0 0 Z " fill="#69DDE9" transform="translate(445,138)"/>
<path d="M0 0 C0.33 0.99 0.66 1.98 1 3 C1.99 3.33 2.98 3.66 4 4 C4 4.66 4 5.32 4 6 C4.66 6 5.32 6 6 6 C6 8.31 6 10.62 6 13 C7.32 13 8.64 13 10 13 C10 11.02 10 9.04 10 7 C10.99 8.485 10.99 8.485 12 10 C11.125 13.1875 11.125 13.1875 10 16 C8.68 16 7.36 16 6 16 C4.79994469 13.9021477 3.61497017 11.7979751 2.4375 9.6875 C1.92413086 8.79514648 1.92413086 8.79514648 1.40039062 7.88476562 C0.52233738 6.29717441 -0.24586268 4.65006069 -1 3 C-0.67 2.01 -0.34 1.02 0 0 Z " fill="#C0E089" transform="translate(241,414)"/>
<path d="M0 0 C-7.59 4.29 -15.18 8.58 -23 13 C-23 12.01 -23 11.02 -23 10 C-21.37064759 8.62131719 -19.70250393 7.28725907 -18 6 C-17.67 5.34 -17.34 4.68 -17 4 C-14.69 4 -12.38 4 -10 4 C-10 3.34 -10 2.68 -10 2 C-3.375 -1.125 -3.375 -1.125 0 0 Z " fill="#96CE51" transform="translate(356,410)"/>
<path d="M0 0 C0 0.66 0 1.32 0 2 C-0.99 2 -1.98 2 -3 2 C-3.33 2.99 -3.66 3.98 -4 5 C-4.66 5 -5.32 5 -6 5 C-6.0825 5.61875 -6.165 6.2375 -6.25 6.875 C-7 9 -7 9 -8.875 10.1875 C-12.82425088 11.69750769 -14.89131458 11.99940997 -19 11 C-16.22312644 7.75177521 -12.60938618 5.87816944 -8.9375 3.8125 C-8.30005859 3.44447266 -7.66261719 3.07644531 -7.00585938 2.69726562 C-2.25687036 0 -2.25687036 0 0 0 Z " fill="#68B0D7" transform="translate(146,51)"/>
<path d="M0 0 C0.33 0.99 0.66 1.98 1 3 C0.29875 3.2475 -0.4025 3.495 -1.125 3.75 C-4.12189849 4.91927438 -4.12189849 4.91927438 -6.8125 7.125 C-10.9497557 9.55867982 -13.27766428 9.32567833 -18 9 C-15.75258428 6.54435727 -13.47444325 4.97583221 -10.5625 3.375 C-9.80066406 2.94960938 -9.03882813 2.52421875 -8.25390625 2.0859375 C-5.4746182 0.74686978 -3.08733565 0 0 0 Z " fill="#4AACD8" transform="translate(192,26)"/>
<path d="M0 0 C1.65 0 3.3 0 5 0 C5.103125 0.639375 5.20625 1.27875 5.3125 1.9375 C5.539375 2.618125 5.76625 3.29875 6 4 C6.99 4.33 7.98 4.66 9 5 C9.66 4.34 10.32 3.68 11 3 C11.268125 3.969375 11.53625 4.93875 11.8125 5.9375 C12.204375 6.948125 12.59625 7.95875 13 9 C13.99 9.33 14.98 9.66 16 10 C16.33 11.98 16.66 13.96 17 16 C12.80838948 12.44624326 8.66663011 8.84210234 4.5625 5.1875 C3.69753906 4.41792969 2.83257812 3.64835937 1.94140625 2.85546875 C1.30074219 2.24316406 0.66007813 1.63085938 0 1 C0 0.67 0 0.34 0 0 Z " fill="#9AD364" transform="translate(167,323)"/>
<path d="M0 0 C1.47177418 3.82661288 0.57016757 6.31010622 -1 10 C-2.5 11.875 -2.5 11.875 -4 13 C-4.66 13 -5.32 13 -6 13 C-6.33 13.99 -6.66 14.98 -7 16 C-8.98 16.33 -10.96 16.66 -13 17 C-12.13375 16.01 -11.2675 15.02 -10.375 14 C-4.61014821 7.39934356 -4.61014821 7.39934356 0 0 Z " fill="#56C0DF" transform="translate(287,184)"/>
<path d="M0 0 C8.22492784 3.98121507 16.16219859 8.30287788 24 13 C20.37673261 14.2077558 19.35853631 13.54311128 16 12 C16 11.34 16 10.68 16 10 C14.80375 9.938125 13.6075 9.87625 12.375 9.8125 C7.57310089 9.2314873 5.34299778 7.42657272 2 4 C2 3.34 2 2.68 2 2 C1.34 2 0.68 2 0 2 C0 1.34 0 0.68 0 0 Z " fill="#74DDEA" transform="translate(396,76)"/>
<path d="M0 0 C-1.175625 0.12375 -1.175625 0.12375 -2.375 0.25 C-3.24125 0.4975 -4.1075 0.745 -5 1 C-5.6837045 2.32467746 -6.34964186 3.65863633 -7 5 C-9.375 6.125 -9.375 6.125 -12 7 C-12.639375 7.37125 -13.27875 7.7425 -13.9375 8.125 C-16.68436906 9.29033839 -19.05001069 9.13409042 -22 9 C-18.36449156 5.88093762 -14.77451024 3.71277825 -10.4375 1.6875 C-9.32246094 1.15511719 -8.20742187 0.62273438 -7.05859375 0.07421875 C-4.02772264 -0.99026344 -2.90251068 -1.21351913 0 0 Z " fill="#5DB8DB" transform="translate(230,6)"/>
<path d="M0 0 C0.33 0.66 0.66 1.32 1 2 C0.27931168 3.73620367 -0.44747119 5.47067912 -1.23046875 7.1796875 C-2.17352248 9.41046435 -2.63800012 11.61080078 -3 14 C-3.99 14 -4.98 14 -6 14 C-6.33 14.66 -6.66 15.32 -7 16 C-9.0625 16.625 -9.0625 16.625 -11 17 C-9.56407335 12.88016856 -7.53749031 9.74182002 -4.9375 6.25 C-4.22464844 5.28578125 -3.51179688 4.3215625 -2.77734375 3.328125 C-1 1 -1 1 0 0 Z " fill="#98D076" transform="translate(276,281)"/>
<path d="M0 0 C1.41750563 0.11509661 2.83401169 0.24253658 4.25 0.375 C5.03890625 0.44460937 5.8278125 0.51421875 6.640625 0.5859375 C11.25428583 1.3956197 14.58711994 3.86383994 18 7 C18.8125 9.25 18.8125 9.25 19 11 C14.60616294 9.40376856 10.71004193 7.21975667 6.6875 4.875 C6.04232422 4.50246094 5.39714844 4.12992188 4.73242188 3.74609375 C3.15324055 2.83367787 1.57638136 1.91724491 0 1 C0 0.67 0 0.34 0 0 Z " fill="#57B0D9" transform="translate(170,222)"/>
<path d="M0 0 C1.65 0 3.3 0 5 0 C1.03555959 3.40466449 -3.08850556 5.84121533 -7.6875 8.25 C-8.70166992 8.79527344 -8.70166992 8.79527344 -9.73632812 9.3515625 C-14.73948543 12 -14.73948543 12 -17 12 C-16.67 10.35 -16.34 8.7 -16 7 C-14.39743892 6.49487756 -12.79288208 5.99608373 -11.1875 5.5 C-9.84751953 5.08234375 -9.84751953 5.08234375 -8.48046875 4.65625 C-6 4 -6 4 -3 4 C-3 3.34 -3 2.68 -3 2 C-2.01 2 -1.02 2 0 2 C0 1.34 0 0.68 0 0 Z " fill="#77DAE6" transform="translate(399,181)"/>
<path d="M0 0 C0.8125 1.6875 0.8125 1.6875 1 4 C-1.3125 6.75 -1.3125 6.75 -4 9 C-4.66 9 -5.32 9 -6 9 C-6.2475 9.94875 -6.495 10.8975 -6.75 11.875 C-8 15 -8 15 -10.0625 16.25 C-10.701875 16.4975 -11.34125 16.745 -12 17 C-12.33 17.66 -12.66 18.32 -13 19 C-13.66 19 -14.32 19 -15 19 C-13.40212025 15.35752143 -11.15207958 12.55600321 -8.625 9.5 C-7.85414063 8.5615625 -7.08328125 7.623125 -6.2890625 6.65625 C-4.27933934 4.32414804 -2.21072222 2.14005986 0 0 Z " fill="#91CB64" transform="translate(340,328)"/>
<path d="M0 0 C0 0.66 0 1.32 0 2 C-1.65532623 3.01866229 -3.32260138 4.01810813 -5 5 C-5.33 5.66 -5.66 6.32 -6 7 C-7.68589756 7.76030674 -9.37637344 8.51297197 -11.09375 9.19921875 C-13.25667901 10.06887785 -13.25667901 10.06887785 -16.1875 11.75 C-19.27871227 13.12387212 -19.93268685 12.97208211 -23 12 C-19.54565686 9.99304709 -16.0858937 7.99563221 -12.625 6 C-11.64015625 5.42765625 -10.6553125 4.8553125 -9.640625 4.265625 C-8.69960937 3.72421875 -7.75859375 3.1828125 -6.7890625 2.625 C-5.91975098 2.12226562 -5.05043945 1.61953125 -4.15478516 1.1015625 C-2 0 -2 0 0 0 Z " fill="#63B3D5" transform="translate(174,35)"/>
<path d="M0 0 C0.75 1.625 0.75 1.625 1 4 C-0.8125 7.25 -0.8125 7.25 -3 10 C-3.66 10 -4.32 10 -5 10 C-5.33 12.64 -5.66 15.28 -6 18 C-7.65 18.66 -9.3 19.32 -11 20 C-11 20.99 -11 21.98 -11 23 C-11.66 23 -12.32 23 -13 23 C-11.26946315 18.05560901 -8.60713969 13.72834891 -5.9375 9.25 C-5.47794922 8.47011719 -5.01839844 7.69023437 -4.54492188 6.88671875 C-1.14457289 1.14457289 -1.14457289 1.14457289 0 0 Z " fill="#A1D36D" transform="translate(310,366)"/>
<path d="M0 0 C5 1 5 1 7 2 C7 2.66 7 3.32 7 4 C5.35 3.67 3.7 3.34 2 3 C2.01160156 4.1859375 2.02320313 5.371875 2.03515625 6.59375 C2.10502901 17.11287596 1.81024407 27.51023298 1 38 C0.67 38 0.34 38 0 38 C0 25.46 0 12.92 0 0 Z " fill="#6FBC4B" transform="translate(43,170)"/>
<path d="M0 0 C4.95 0 9.9 0 15 0 C13.02 0.99 13.02 0.99 11 2 C9.16337363 2.99393898 7.33025012 3.99436806 5.5 5 C2.35923236 6.72569651 -0.78245531 8.42158185 -4 10 C-4 9.01 -4 8.02 -4 7 C-3.01 7 -2.02 7 -1 7 C-1 6.01 -1 5.02 -1 4 C-0.34 3.67 0.32 3.34 1 3 C0.67 2.01 0.34 1.02 0 0 Z " fill="#66C0E0" transform="translate(224,123)"/>
<path d="M0 0 C4.76551013 1.37605916 8.7248553 3.46778066 12.875 6.125 C13.46796875 6.49753906 14.0609375 6.87007812 14.671875 7.25390625 C16.1181343 8.16365 17.55958046 9.08103798 19 10 C17.17578125 10.6171875 17.17578125 10.6171875 15 11 C12 9 12 9 9 7 C5.26774656 6.20317197 5.26774656 6.20317197 2 6 C1.34 4.02 0.68 2.04 0 0 Z " fill="#98CD7B" transform="translate(169,244)"/>
<path d="M0 0 C-2.5352135 5.43260036 -5.44061858 6.8159573 -11 9 C-11.66 9 -12.32 9 -13 9 C-12.33403753 6.3361501 -11.64046442 4.50495054 -9.44921875 2.77734375 C-6.02260469 0.73018032 -4.04200836 0 0 0 Z " fill="#529DD4" transform="translate(99,79)"/>
<path d="M0 0 C0.99 0.99 1.98 1.98 3 3 C2.43410156 3.47050781 1.86820312 3.94101562 1.28515625 4.42578125 C0.55167969 5.04839844 -0.18179687 5.67101562 -0.9375 6.3125 C-2.03384766 7.23482422 -2.03384766 7.23482422 -3.15234375 8.17578125 C-5.23820366 9.95975519 -5.23820366 9.95975519 -6 13 C-8.31 13 -10.62 13 -13 13 C-11.74522091 9.23566274 -10.08722996 8.83697354 -6.71484375 7.05078125 C-4.56121251 5.73113022 -3.40500776 4.07053775 -2 2 C-1.34 2 -0.68 2 0 2 C0 1.34 0 0.68 0 0 Z " fill="#6BC53C" transform="translate(289,271)"/>
<path d="M0 0 C0 3 0 3 -1.0625 4.5 C-4.81199013 7.40283107 -9.3668933 9.07337866 -14 10 C-14 9.01 -14 8.02 -14 7 C-11.4453125 5.17578125 -11.4453125 5.17578125 -8.125 3.3125 C-7.03445313 2.68988281 -5.94390625 2.06726563 -4.8203125 1.42578125 C-2 0 -2 0 0 0 Z " fill="#67BE5B" transform="translate(398,207)"/>
<path d="M0 0 C3.02419525 0.58803797 6.01758453 1.22678118 9 2 C9.061875 3.1446875 9.061875 3.1446875 9.125 4.3125 C9.7618443 7.31634538 9.7618443 7.31634538 13 8.625 C13.99 9.07875 14.98 9.5325 16 10 C16.33 10.99 16.66 11.98 17 13 C12.98981897 11.61047587 10.09967277 9.73301706 6.8125 7.0625 C5.95269531 6.37285156 5.09289062 5.68320312 4.20703125 4.97265625 C2 3 2 3 0 0 Z " fill="#A7D566" transform="translate(61,359)"/>
<path d="M0 0 C6.93801312 6.7277703 12.83134661 13.82103199 18 22 C16.68 21.67 15.36 21.34 14 21 C14 20.01 14 19.02 14 18 C13.34 18 12.68 18 12 18 C10.98133771 16.34467377 9.98189187 14.67739862 9 13 C8.34 12.67 7.68 12.34 7 12 C6.54625 11.21625 6.0925 10.4325 5.625 9.625 C4.18287605 6.91812252 4.18287605 6.91812252 1.8125 5.4375 C1.214375 4.963125 0.61625 4.48875 0 4 C0 2.68 0 1.36 0 0 Z " fill="#9ECE63" transform="translate(161,333)"/>
<path d="M0 0 C2.97 0 5.94 0 9 0 C7 1.5 7 1.5 5 3 C4.01 3.7734375 4.01 3.7734375 3 4.5625 C-0.1150351 6.80143148 -2.11573594 8 -6 8 C-5.8125 6.125 -5.8125 6.125 -5 4 C-2.4375 2.75 -2.4375 2.75 0 2 C0 1.34 0 0.68 0 0 Z " fill="#2BA1E2" transform="translate(174,35)"/>
<path d="M0 0 C1.65 0 3.3 0 5 0 C5 0.66 5 1.32 5 2 C6.65 2 8.3 2 10 2 C10.33 3.32 10.66 4.64 11 6 C12.65 6 14.3 6 16 6 C16 6.99 16 7.98 16 9 C16.99 9 17.98 9 19 9 C19 9.66 19 10.32 19 11 C14.25652774 9.62309544 10.27474838 7.56160559 6.125 4.9375 C5.53203125 4.57333984 4.9390625 4.20917969 4.328125 3.83398438 C2.86464287 2.9218371 1.4292745 1.96486632 0 1 C0 0.67 0 0.34 0 0 Z " fill="#C5E384" transform="translate(198,442)"/>
<path d="M0 0 C0.33 0.66 0.66 1.32 1 2 C0.0625 4.625 0.0625 4.625 -1 7 C-1.86625 6.9175 -2.7325 6.835 -3.625 6.75 C-7.75988007 7.05628741 -9.74642697 8.52108722 -13 11 C-11.50958227 7.20620942 -9.30937488 5.31656242 -6 3 C-5.34 3 -4.68 3 -4 3 C-4 2.34 -4 1.68 -4 1 C-2.68 0.67 -1.36 0.34 0 0 Z " fill="#2A8CD9" transform="translate(81,90)"/>
<path d="M0 0 C0.33 0.66 0.66 1.32 1 2 C1.99 2.33 2.98 2.66 4 3 C4 3.66 4 4.32 4 5 C4.66 5.33 5.32 5.66 6 6 C6.73075648 8.3140622 7.40138258 10.64828869 8 13 C5.39611102 12.62642278 4.25705243 12.28877098 2.48046875 10.29296875 C2.05378906 9.59816406 1.62710938 8.90335937 1.1875 8.1875 C0.74792969 7.50042969 0.30835938 6.81335938 -0.14453125 6.10546875 C-1.15965671 3.60705494 -0.91191297 2.48957835 0 0 Z " fill="#A3D65E" transform="translate(224,384)"/>
<path d="M0 0 C2.475 0.99 2.475 0.99 5 2 C5 2.66 5 3.32 5 4 C4.525625 4.45375 4.05125 4.9075 3.5625 5.375 C1.77906263 7.22977487 1.4308007 8.50135592 1 11 C0.34 11 -0.32 11 -1 11 C-1 11.99 -1 12.98 -1 14 C-1.66 14 -2.32 14 -3 14 C-3.33 14.66 -3.66 15.32 -4 16 C-4.1875 13.125 -4.1875 13.125 -4 10 C-3.01 9.34 -2.02 8.68 -1 8 C-0.42251197 6.03638136 -0.42251197 6.03638136 -0.3125 3.875 C-0.209375 2.59625 -0.10625 1.3175 0 0 Z " fill="#88CF35" transform="translate(271,381)"/>
<path d="M0 0 C0 0.66 0 1.32 0 2 C-2.64738916 3.4606285 -3.89448334 4 -7 4 C-7.33 4.99 -7.66 5.98 -8 7 C-15.65083958 8.24911667 -23.27440986 8.09053426 -31 8 C-31 7.67 -31 7.34 -31 7 C-30.12859375 6.97421875 -29.2571875 6.9484375 -28.359375 6.921875 C-18.76182889 6.46484899 -8.41466501 0 0 0 Z " fill="#86D0E7" transform="translate(274,201)"/>
<path d="M0 0 C0.598125 0.309375 1.19625 0.61875 1.8125 0.9375 C4.08956772 2.10209704 4.08956772 2.10209704 7 3 C7 3.66 7 4.32 7 5 C8.98 5 10.96 5 13 5 C13 5.99 13 6.98 13 8 C13.66 8 14.32 8 15 8 C15 8.66 15 9.32 15 10 C9.52067211 8.45454854 4.88570819 5.84456788 0 3 C0 2.01 0 1.02 0 0 Z " fill="#9AD36B" transform="translate(122,292)"/>
<path d="M0 0 C5.00113594 1.48008696 9.32915597 3.6318336 13.875 6.125 C14.56335938 6.49753906 15.25171875 6.87007812 15.9609375 7.25390625 C17.64294798 8.16499526 19.32180436 9.08190315 21 10 C20.34 10.66 19.68 11.32 19 12 C19 11.34 19 10.68 19 10 C17.906875 9.87625 16.81375 9.7525 15.6875 9.625 C12 9 12 9 9 7 C8.01 6.67 7.02 6.34 6 6 C5 5 4 4 3 3 C2.34 3 1.68 3 1 3 C0.67 2.01 0.34 1.02 0 0 Z " fill="#9ACF7B" transform="translate(144,231)"/>
<path d="M0 0 C1.65 0 3.3 0 5 0 C3.60519553 4.18441341 0.63260753 5.50674116 -2.9375 7.75 C-3.58396484 8.17410156 -4.23042969 8.59820312 -4.89648438 9.03515625 C-6.55538613 10.09285685 -8.27458455 11.05468148 -10 12 C-10.66 11.67 -11.32 11.34 -12 11 C-9.16569547 7.7457985 -7.31392226 6.4793247 -3 6 C-3 5.01 -3 4.02 -3 3 C-2.01 3 -1.02 3 0 3 C0 2.01 0 1.02 0 0 Z " fill="#64D9E8" transform="translate(416,169)"/>
<path d="M0 0 C0.66 0.33 1.32 0.66 2 1 C1 4 1 4 -1.3125 5.1875 C-4 6 -4 6 -8 6 C-8 6.66 -8 7.32 -8 8 C-9.75 9.6875 -9.75 9.6875 -12 11 C-14.140625 10.58203125 -14.140625 10.58203125 -16 10 C-5.2 2.65306122 -5.2 2.65306122 0 0 Z " fill="#78B1D8" transform="translate(85,85)"/>
<path d="M0 0 C0.33 0 0.66 0 1 0 C1 1.65 1 3.3 1 5 C0.34 5 -0.32 5 -1 5 C-1.33 7.64 -1.66 10.28 -2 13 C-2.66 13 -3.32 13 -4 13 C-4.28875 13.804375 -4.5775 14.60875 -4.875 15.4375 C-6 18 -6 18 -8 19 C-6.21440518 12.04634211 -3.7441867 6.12685097 0 0 Z " fill="#ABDA89" transform="translate(264,298)"/>
<path d="M0 0 C0.66 0.33 1.32 0.66 2 1 C2.27707311 18.17853273 2.27707311 18.17853273 -1 24 C-1.66 24 -2.32 24 -3 24 C-3 22.68 -3 21.36 -3 20 C-2.34 20 -1.68 20 -1 20 C-1.20625 19.113125 -1.4125 18.22625 -1.625 17.3125 C-2 14 -2 14 -1.0625 11.6875 C0.46965458 7.81205018 0.1614945 4.11810973 0 0 Z " fill="#37D8E9" transform="translate(445,118)"/>
<path d="M0 0 C0.93065133 2.60582371 1.14917407 3.64198224 0.0625 6.25 C-0.4634375 7.11625 -0.4634375 7.11625 -1 8 C-0.01 8.33 0.98 8.66 2 9 C0.51153846 13.71346154 0.51153846 13.71346154 -2.078125 15.1640625 C-3.02945312 15.57785156 -3.02945312 15.57785156 -4 16 C-3.65697965 10.01488629 -3.17692157 5.24882694 0 0 Z " fill="#96D34B" transform="translate(296,389)"/>
<path d="M0 0 C6.57713583 0.99924739 10.91068012 2.6528726 16 7 C16.33 7.99 16.66 8.98 17 10 C12.97683781 8.51463956 9.38707358 6.60123107 5.6875 4.4375 C4.61886719 3.81746094 3.55023438 3.19742187 2.44921875 2.55859375 C1.64097656 2.04425781 0.83273438 1.52992188 0 1 C0 0.67 0 0.34 0 0 Z " fill="#ACD862" transform="translate(102,386)"/>
<path d="M0 0 C0.33 3.3 0.66 6.6 1 10 C-2.28788824 6.88983545 -4.83735988 3.98381075 -7 0 C-3.98968256 -0.93423645 -3.13349732 -1.04449911 0 0 Z " fill="#A2D655" transform="translate(60,349)"/>
<path d="M0 0 C2.33698908 3.50548362 3.45185838 7.0809881 4.6875 11.0625 C5.04424805 12.16174805 5.04424805 12.16174805 5.40820312 13.28320312 C7.12194293 18.75611413 7.12194293 18.75611413 6 21 C4 20 4 20 3 17 C2.96045766 14.66700175 2.95598268 12.33291811 3 10 C2.34 10 1.68 10 1 10 C-0.60725635 6.78548731 -0.05748185 3.56387464 0 0 Z " fill="#9ACF6C" transform="translate(240,314)"/>
<path d="M0 0 C3.99757227 0.9137308 5.64912467 2.54958306 7.8125 5.875 C9.78763304 9.07167685 10 10.02412376 10 14 C10.66 14.33 11.32 14.66 12 15 C11.01 15 10.02 15 9 15 C7.5 12.98828125 7.5 12.98828125 6 10.3125 C5.505 9.44238281 5.01 8.57226562 4.5 7.67578125 C4.005 6.79277344 3.51 5.90976562 3 5 C2.00508489 3.33029293 1.0066006 1.66268849 0 0 Z " fill="#84CCE1" transform="translate(238,273)"/>
<path d="M0 0 C-1.51495215 4.24186602 -4.12759895 5.88113905 -8 8 C-11.875 8.75 -11.875 8.75 -15 9 C-12.59888822 6.36115438 -9.99444972 4.63586471 -6.9375 2.8125 C-5.62072266 2.01779297 -5.62072266 2.01779297 -4.27734375 1.20703125 C-2 0 -2 0 0 0 Z " fill="#7CC25E" transform="translate(318,250)"/>
<path d="M0 0 C0.66 0.33 1.32 0.66 2 1 C2 3.31 2 5.62 2 8 C1.01 7.67 0.02 7.34 -1 7 C-1 6.34 -1 5.68 -1 5 C-1.99 5.495 -1.99 5.495 -3 6 C-3.33 6.99 -3.66 7.98 -4 9 C-6.0625 9.6875 -6.0625 9.6875 -8 10 C-6.02677065 5.43041625 -4.07763771 2.86536704 0 0 Z " fill="#43B44A" transform="translate(452,169)"/>
<path d="M0 0 C4.39383706 1.59623144 8.28995807 3.78024333 12.3125 6.125 C12.95767578 6.49753906 13.60285156 6.87007812 14.26757812 7.25390625 C15.84675945 8.16632213 17.42361864 9.08275509 19 10 C17.68 10.33 16.36 10.66 15 11 C15 10.34 15 9.68 15 9 C14.319375 8.9175 13.63875 8.835 12.9375 8.75 C9.1253093 7.77667472 6.35929671 6.04192545 3 4 C3 3.34 3 2.68 3 2 C2.01 2 1.02 2 0 2 C0 1.34 0 0.68 0 0 Z " fill="#7CD8E5" transform="translate(352,51)"/>
<path d="M0 0 C3.43918855 3.66076092 3.91503162 7.47167102 4.6875 12.25 C4.81705078 12.99507813 4.94660156 13.74015625 5.08007812 14.5078125 C5.39664262 16.33685178 5.69967399 18.16822435 6 20 C5.34 20 4.68 20 4 20 C3.80664062 19.20335937 3.61328125 18.40671875 3.4140625 17.5859375 C1.7831966 10.92263 1.7831966 10.92263 -0.25 4.375 C-1 2 -1 2 0 0 Z " fill="#9BD13B" transform="translate(214,417)"/>
<path d="M0 0 C1.98 0 3.96 0 6 0 C2.43312878 3.04408304 -1.09510916 5.21082201 -5.3125 7.25 C-6.38113281 7.77078125 -7.44976562 8.2915625 -8.55078125 8.828125 C-9.76314453 9.40820312 -9.76314453 9.40820312 -11 10 C-11 9.01 -11 8.02 -11 7 C-9.68 7 -8.36 7 -7 7 C-7 6.01 -7 5.02 -7 4 C-5.68 4 -4.36 4 -3 4 C-3 3.34 -3 2.68 -3 2 C-2.01 2 -1.02 2 0 2 C0 1.34 0 0.68 0 0 Z " fill="#9BCF62" transform="translate(383,390)"/>
<path d="M0 0 C0.66 0.33 1.32 0.66 2 1 C0.83805848 7.46712188 -1.1248748 13.09622349 -4 19 C-4.33 19 -4.66 19 -5 19 C-5 17.02 -5 15.04 -5 13 C-4.34 13 -3.68 13 -3 13 C-3.020625 12.05125 -3.04125 11.1025 -3.0625 10.125 C-3 7 -3 7 -2 5 C-1.34 5 -0.68 5 0 5 C0 3.35 0 1.7 0 0 Z " fill="#92CE79" transform="translate(452,326)"/>
<path d="M0 0 C0.99 0.33 1.98 0.66 3 1 C1.04709472 2.83943372 -0.91181918 4.67159131 -2.875 6.5 C-3.70837891 7.28697266 -3.70837891 7.28697266 -4.55859375 8.08984375 C-8.7734375 12 -8.7734375 12 -11 12 C-10.67 10.68 -10.34 9.36 -10 8 C-9.01 8 -8.02 8 -7 8 C-7 7.01 -7 6.02 -7 5 C-6.01 5 -5.02 5 -4 5 C-4.33 4.01 -4.66 3.02 -5 2 C-3.35 2 -1.7 2 0 2 C0 1.34 0 0.68 0 0 Z " fill="#99CE70" transform="translate(331,320)"/>
<path d="M0 0 C2 1 2 1 2 1 Z M-3 1 C-2.01 1 -1.02 1 0 1 C-0.34879632 4.25543229 -1.02133261 5.01873107 -3.5625 7.25 C-4.366875 7.8275 -5.17125 8.405 -6 9 C-6.66 8.67 -7.32 8.34 -8 8 C-8.625 5.4375 -8.625 5.4375 -9 3 C-7.02 3 -5.04 3 -3 3 C-3 2.34 -3 1.68 -3 1 Z " fill="#5EBF3D" transform="translate(343,238)"/>
<path d="M0 0 C0.66 0 1.32 0 2 0 C2 0.66 2 1.32 2 2 C2.99 2 3.98 2 5 2 C5.83764268 3.95649397 6.66999059 5.91525556 7.5 7.875 C7.9640625 8.96554688 8.428125 10.05609375 8.90625 11.1796875 C10 14 10 14 10 16 C9.01 16 8.02 16 7 16 C6.74605469 15.34773437 6.49210937 14.69546875 6.23046875 14.0234375 C4.34261472 9.22956098 2.39996262 4.55992898 0 0 Z " fill="#78CDE4" transform="translate(283,139)"/>
<path d="M0 0 C2.03288895 2.60536918 3.74969771 5.18037686 5.25 8.125 C5.60578125 8.80820312 5.9615625 9.49140625 6.328125 10.1953125 C6.54984375 10.79085938 6.7715625 11.38640625 7 12 C6.67 12.66 6.34 13.32 6 14 C3 12.625 3 12.625 0 10 C-0.5412406 6.6145931 -0.35042185 3.40038985 0 0 Z " fill="#A7D75D" transform="translate(203,394)"/>
<path d="M0 0 C2.97 0.33 5.94 0.66 9 1 C9 1.66 9 2.32 9 3 C9.66 3 10.32 3 11 3 C11.99 4.98 12.98 6.96 14 9 C10.40241608 7.67726488 7.36262865 6.0805802 4.1875 3.9375 C3.39730469 3.41027344 2.60710937 2.88304687 1.79296875 2.33984375 C1.20128906 1.89769531 0.60960937 1.45554688 0 1 C0 0.67 0 0.34 0 0 Z " fill="#68BCDE" transform="translate(191,234)"/>
<path d="M0 0 C0.33 0.99 0.66 1.98 1 3 C1.99 3.33 2.98 3.66 4 4 C4.33 6.31 4.66 8.62 5 11 C5.66 11 6.32 11 7 11 C7.33 13.31 7.66 15.62 8 18 C3.35058518 12.85243359 0 6.99826151 0 0 Z " fill="#B7DB7D" transform="translate(45,331)"/>
<path d="M0 0 C0.25 5.625 0.25 5.625 -2 9 C-2.99 9 -3.98 9 -5 9 C-5.66 6.69 -6.32 4.38 -7 2 C-1.125 0 -1.125 0 0 0 Z " fill="#4AB8DC" transform="translate(253,278)"/>
<path d="M0 0 C0.33 0.66 0.66 1.32 1 2 C-1.13478166 5.20217249 -2.62795029 6.27285259 -6 8 C-6.99 8 -7.98 8 -9 8 C-8.62724214 5.29750549 -8.21551151 4.20064865 -6.1875 2.3125 C-4.07842076 1.04705245 -2.40611571 0.42966352 0 0 Z " fill="#46B647" transform="translate(441,181)"/>
<path d="M0 0 C2.31 0.33 4.62 0.66 7 1 C3.11690718 4.64775386 0.28798182 5.58525633 -5 6 C-5.33 4.35 -5.66 2.7 -6 1 C-3.525 1.495 -3.525 1.495 -1 2 C-0.67 1.34 -0.34 0.68 0 0 Z " fill="#A6D84E" transform="translate(282,447)"/>
<path d="M0 0 C0.66 0.33 1.32 0.66 2 1 C2.12375 2.051875 2.2475 3.10375 2.375 4.1875 C3.06788783 8.41411574 4.52676191 10.56937942 7 14 C7 14.66 7 15.32 7 16 C7.66 16 8.32 16 9 16 C9 16.66 9 17.32 9 18 C6.13275314 17.42655063 5.1385485 17.1385485 3 15 C2.875 12.375 2.875 12.375 3 10 C2.34 10 1.68 10 1 10 C0.63720544 8.71073008 0.28503302 7.41846728 -0.0625 6.125 C-0.35833984 5.04605469 -0.35833984 5.04605469 -0.66015625 3.9453125 C-1 2 -1 2 0 0 Z " fill="#92D037" transform="translate(237,400)"/>
<path d="M0 0 C5.07648175 2.78387709 9.4833069 6.40829416 14 10 C13.34 10.66 12.68 11.32 12 12 C12 11.34 12 10.68 12 10 C10.35 9.67 8.7 9.34 7 9 C7 8.34 7 7.68 7 7 C6.34 7 5.68 7 5 7 C5 6.34 5 5.68 5 5 C3.68 4.67 2.36 4.34 1 4 C0.67 2.68 0.34 1.36 0 0 Z " fill="#9AD06B" transform="translate(125,301)"/>
<path d="M0 0 C0.66 0.33 1.32 0.66 2 1 C-2.73182553 8.34248788 -2.73182553 8.34248788 -5 10 C-8.1875 10.6875 -8.1875 10.6875 -11 11 C-7.33333333 7.33333333 -3.66666667 3.66666667 0 0 Z " fill="#7DC681" transform="translate(446,172)"/>
<path d="M0 0 C1.65 0 3.3 0 5 0 C5 0.66 5 1.32 5 2 C7.475 2.99 7.475 2.99 10 4 C9.67 4.99 9.34 5.98 9 7 C5.59687262 5.94124926 2.98646769 4.99097846 0 3 C0 2.01 0 1.02 0 0 Z " fill="#28CBED" transform="translate(350,53)"/>
<path d="M0 0 C0.33 0 0.66 0 1 0 C0.65171318 5.39844578 0.65171318 5.39844578 0 8 C-1.9375 9.5625 -1.9375 9.5625 -4 10 C-4.66 9.67 -5.32 9.34 -6 9 C-4.47300326 5.56425733 -2.44973747 2.84485642 0 0 Z " fill="#8FCE57" transform="translate(324,347)"/>
<path d="M0 0 C3.91939465 3.80411834 7.49102731 7.81576108 11 12 C10.01 12.495 10.01 12.495 9 13 C9 12.34 9 11.68 9 11 C8.2575 10.773125 7.515 10.54625 6.75 10.3125 C3.4159936 8.72126967 1.98743641 7.09156776 0 4 C0 2.68 0 1.36 0 0 Z " fill="#7CC5DE" transform="translate(212,188)"/>
<path d="M0 0 C3.84258202 0.77652178 5.27500786 2.18985186 8 5 C10.13309192 6.23512079 10.13309192 6.23512079 12 7 C11.67 7.66 11.34 8.32 11 9 C8.875 9 8.875 9 6 8 C3.74515308 5.50224217 1.85734917 2.80198037 0 0 Z " fill="#5099CE" transform="translate(67,160)"/>
<path d="M0 0 C5.96652354 1.57013777 10.82909025 4.75029782 16 8 C13.41907165 8.9700528 12.34107231 9.14009383 9.74609375 8.07421875 C8.98425781 7.61660156 8.22242188 7.15898437 7.4375 6.6875 C6.29087891 6.01267578 6.29087891 6.01267578 5.12109375 5.32421875 C3.39476569 4.24645593 1.69333607 3.12889071 0 2 C0 1.34 0 0.68 0 0 Z " fill="#73CBE1" transform="translate(291,16)"/>
<path d="M0 0 C1.4618816 4.82736441 0.25835851 8.54069859 -2.02734375 13.0078125 C-2.98493059 14.69125699 -3.98872426 16.34824963 -5 18 C-6 16 -6 16 -4.78515625 12.3046875 C-4.21866415 10.82514342 -3.64408111 9.34867819 -3.0625 7.875 C-2.77181641 7.12089844 -2.48113281 6.36679687 -2.18164062 5.58984375 C-1.46125002 3.72391398 -0.73149596 1.8616042 0 0 Z " fill="#C1E287" transform="translate(278,428)"/>
<path d="M0 0 C5.28137429 0.51525603 8.57221156 2.25477117 13 5 C13 5.66 13 6.32 13 7 C13.99 7 14.98 7 16 7 C16 7.66 16 8.32 16 9 C10.0942118 7.44584521 5.02261107 4.40465533 0 1 C0 0.67 0 0.34 0 0 Z " fill="#ADD764" transform="translate(119,396)"/>
<path d="M0 0 C1.32 0.33 2.64 0.66 4 1 C1.37785672 2.50519387 -1.24744208 4.00431319 -3.875 5.5 C-4.62136719 5.92925781 -5.36773437 6.35851562 -6.13671875 6.80078125 C-6.85214844 7.20683594 -7.56757813 7.61289063 -8.3046875 8.03125 C-8.96452637 8.40830078 -9.62436523 8.78535156 -10.30419922 9.17382812 C-12 10 -12 10 -14 10 C-14 9.34 -14 8.68 -14 8 C-13.01 8 -12.02 8 -11 8 C-11 7.34 -11 6.68 -11 6 C-4.5 2 -4.5 2 0 2 C0 1.34 0 0.68 0 0 Z " fill="#76D1E2" transform="translate(329,219)"/>
<path d="M0 0 C0.66 0 1.32 0 2 0 C1.67 0.99 1.34 1.98 1 3 C-0.65 3 -2.3 3 -4 3 C-4 3.66 -4 4.32 -4 5 C-4.99 5 -5.98 5 -7 5 C-7 5.66 -7 6.32 -7 7 C-9.31 7.66 -11.62 8.32 -14 9 C-14 8.34 -14 7.68 -14 7 C-13.21625 6.938125 -12.4325 6.87625 -11.625 6.8125 C-10.75875 6.544375 -9.8925 6.27625 -9 6 C-7.62533375 3.52363988 -7.62533375 3.52363988 -7 1 C-5.5459375 1.0309375 -5.5459375 1.0309375 -4.0625 1.0625 C-1.12534105 1.35618499 -1.12534105 1.35618499 0 0 Z " fill="#30D1EC" transform="translate(403,178)"/>
<path d="M0 0 C0.66 0.33 1.32 0.66 2 1 C1 4 1 4 -0.92578125 5.203125 C-1.71339844 5.54859375 -2.50101563 5.8940625 -3.3125 6.25 C-4.09238281 6.60578125 -4.87226562 6.9615625 -5.67578125 7.328125 C-8.24607227 8.0711335 -9.51383429 7.88750996 -12 7 C-10.04754815 5.80285445 -8.08785003 4.61751926 -6.125 3.4375 C-5.03445312 2.77621094 -3.94390625 2.11492187 -2.8203125 1.43359375 C-1.88960937 0.96050781 -0.95890625 0.48742188 0 0 Z " fill="#74B4DA" transform="translate(125,62)"/>
<path d="M0 0 C4.97209562 1.76429199 9.43438061 4.3939166 14 7 C9.41201223 8.53271273 7.22055258 7.02911182 3 5 C3 4.34 3 3.68 3 3 C2.34 3 1.68 3 1 3 C0.67 2.01 0.34 1.02 0 0 Z " fill="#6BD0E5" transform="translate(338,43)"/>
<path d="M0 0 C4.69056641 0.5863208 9.08968731 2.35048907 13 5 C13.33 5.99 13.66 6.98 14 8 C8.76481294 6.56032356 4.36973991 4.18303389 0 1 C0 0.67 0 0.34 0 0 Z " fill="#AAD45C" transform="translate(135,405)"/>
<path d="M0 0 C-1.35374797 4.06124391 -3.26258828 4.60315649 -6.9375 6.6875 C-8.01902344 7.31011719 -9.10054688 7.93273437 -10.21484375 8.57421875 C-13 10 -13 10 -15 10 C-15 9.34 -15 8.68 -15 8 C-12 6 -12 6 -9 6 C-9 5.01 -9 4.02 -9 3 C-2.25 0 -2.25 0 0 0 Z " fill="#9ECF63" transform="translate(371,399)"/>
<path d="M0 0 C0.66 0 1.32 0 2 0 C2.3125 2.3125 2.3125 2.3125 2 5 C-0.86103423 7.24243223 -2.34076304 8 -6 8 C-6 5 -6 5 -4.6875 3.3125 C-3 2 -3 2 0 2 C0 1.34 0 0.68 0 0 Z " fill="#2E9CDE" transform="translate(146,51)"/>
<path d="M0 0 C1.98 0 3.96 0 6 0 C3.05949843 2.27034075 0.03941567 4.30412051 -3.125 6.25 C-4.42824219 7.06210937 -4.42824219 7.06210937 -5.7578125 7.890625 C-6.49773437 8.25671875 -7.23765625 8.6228125 -8 9 C-8.66 8.67 -9.32 8.34 -10 8 C-7.60490662 5.10067643 -5.68754757 4.49831724 -2 4 C-2 3.34 -2 2.68 -2 2 C-1.34 2 -0.68 2 0 2 C0 1.34 0 0.68 0 0 Z " fill="#AFD872" transform="translate(309,433)"/>
<path d="M0 0 C1.32 0 2.64 0 4 0 C4 0.99 4 1.98 4 3 C4.33 3 4.66 3 5 3 C5 4.98 5 6.96 5 9 C3.68 9 2.36 9 1 9 C1 6.69 1 4.38 1 2 C0.34 1.67 -0.32 1.34 -1 1 C-0.67 0.67 -0.34 0.34 0 0 Z " fill="#91D32E" transform="translate(246,418)"/>
<path d="M0 0 C0.33 0.99 0.66 1.98 1 3 C-0.25942386 4.19959375 -1.53295286 5.38439443 -2.8125 6.5625 C-3.87404297 7.55443359 -3.87404297 7.55443359 -4.95703125 8.56640625 C-5.63121094 9.03949219 -6.30539062 9.51257813 -7 10 C-7.99 9.67 -8.98 9.34 -10 9 C-8.71142987 7.68445979 -7.41904109 6.37265903 -6.125 5.0625 C-5.04605469 3.96615234 -5.04605469 3.96615234 -3.9453125 2.84765625 C-2 1 -2 1 0 0 Z " fill="#94CC75" transform="translate(355,314)"/>
<path d="M0 0 C-0.33 0.99 -0.66 1.98 -1 3 C-2.98 3.33 -4.96 3.66 -7 4 C-7 4.66 -7 5.32 -7 6 C-8.98 6 -10.96 6 -13 6 C-5.8 0 -5.8 0 0 0 Z " fill="#85C873" transform="translate(347,235)"/>
<path d="M0 0 C2.375 0.3125 2.375 0.3125 5 1 C7 4 7 4 7 8 C7.99 8.33 8.98 8.66 10 9 C9.67 10.32 9.34 11.64 9 13 C7.49710267 11.02297434 5.99758658 9.0435417 4.5 7.0625 C4.07074219 6.49853516 3.64148438 5.93457031 3.19921875 5.35351562 C0 1.11328125 0 1.11328125 0 0 Z " fill="#AFD976" transform="translate(213,373)"/>
<path d="M0 0 C5.71658336 -0.45732667 8.48649253 0.47726246 13 4 C11.296875 5.1484375 11.296875 5.1484375 9 6 C6.640625 5.1015625 6.640625 5.1015625 4.25 3.625 C3.45078125 3.14289063 2.6515625 2.66078125 1.828125 2.1640625 C1.22484375 1.77992188 0.6215625 1.39578125 0 1 C0 0.67 0 0.34 0 0 Z " fill="#62B2D9" transform="translate(159,216)"/>
<path d="M0 0 C3.69876091 1.37287342 6.9514476 3.06355453 10.3125 5.125 C11.19550781 5.66382812 12.07851563 6.20265625 12.98828125 6.7578125 C13.65214844 7.16773437 14.31601562 7.57765625 15 8 C14.34 8.66 13.68 9.32 13 10 C13 9.34 13 8.68 13 8 C11.35 7.67 9.7 7.34 8 7 C8 6.34 8 5.68 8 5 C5.03 4.505 5.03 4.505 2 4 C2 3.34 2 2.68 2 2 C1.34 2 0.68 2 0 2 C0 1.34 0 0.68 0 0 Z " fill="#80DEEA" transform="translate(380,67)"/>
<path d="M0 0 C2.08984375 0.4296875 2.08984375 0.4296875 4 1 C-3.11389522 7.70387244 -3.11389522 7.70387244 -8 8 C-6.33333333 6.33333333 -4.66666667 4.66666667 -3 3 C-2.484375 2.38125 -1.96875 1.7625 -1.4375 1.125 C-0.963125 0.75375 -0.48875 0.3825 0 0 Z " fill="#90CA6A" transform="translate(364,306)"/>
<path d="M0 0 C1.98 0 3.96 0 6 0 C2.72291137 3.67033927 -0.71522208 5.69281189 -5 8 C-5 6.35 -5 4.7 -5 3 C-3.35 3 -1.7 3 0 3 C0 2.01 0 1.02 0 0 Z " fill="#8FCE6E" transform="translate(349,305)"/>
<path d="M0 0 C1.0625 1.8125 1.0625 1.8125 2 4 C1.67 4.99 1.34 5.98 1 7 C-2.0625 8.1875 -2.0625 8.1875 -5 9 C-4.37315423 6.07471973 -3.51695295 3.58774327 -2 1 C-1.34 0.67 -0.68 0.34 0 0 Z " fill="#4BD0EB" transform="translate(368,194)"/>
<path d="M0 0 C3.53233755 1.17744585 3.86308075 1.95605641 5.6875 5.0625 C6.12449219 5.79597656 6.56148437 6.52945313 7.01171875 7.28515625 C7.33785156 7.85105469 7.66398437 8.41695312 8 9 C1.125 7.125 1.125 7.125 0 6 C-0.04080783 4.00041636 -0.04254356 1.99954746 0 0 Z " fill="#A2D092" transform="translate(42,163)"/>
<path d="M0 0 C1.9451 2.91765 2.45276317 4.62537285 3 8 C-1.55737263 7.56179109 -4.57653445 7.14958831 -8 4 C-5.36 4.33 -2.72 4.66 0 5 C0 3.35 0 1.7 0 0 Z " fill="#B3D868" transform="translate(225,449)"/>
<path d="M0 0 C1.33332095 2.6666419 0.67102033 4.16680303 0 7 C0.66 7.33 1.32 7.66 2 8 C2 9.32 2 10.64 2 12 C0.35 12 -1.3 12 -3 12 C-2.88541307 10.56163249 -2.75790884 9.12429034 -2.625 7.6875 C-2.55539062 6.88699219 -2.48578125 6.08648437 -2.4140625 5.26171875 C-2 3 -2 3 0 0 Z " fill="#97D432" transform="translate(275,442)"/>
<path d="M0 0 C3.24688563 4.32918084 4.13795609 6.48102969 4.0625 11.6875 C4.05347656 12.49574219 4.04445312 13.30398438 4.03515625 14.13671875 C4.02355469 14.75160156 4.01195312 15.36648438 4 16 C2.68 15.67 1.36 15.34 0 15 C0.99 15 1.98 15 3 15 C2.67 14.01 2.34 13.02 2 12 C2.33 11.34 2.66 10.68 3 10 C2.34 10 1.68 10 1 10 C0.67 6.7 0.34 3.4 0 0 Z " fill="#A0D33E" transform="translate(221,438)"/>
<path d="M0 0 C2.31 0.33 4.62 0.66 7 1 C7.66 3.31 8.32 5.62 9 8 C6.5625 7.25 6.5625 7.25 4 6 C3.375 3.9375 3.375 3.9375 3 2 C2.01 1.67 1.02 1.34 0 1 C0 0.67 0 0.34 0 0 Z " fill="#A9D94E" transform="translate(189,434)"/>
<path d="M0 0 C0.66 0 1.32 0 2 0 C2.66 2.31 3.32 4.62 4 7 C-0.31392226 6.5206753 -2.16569547 5.2542015 -5 2 C-3.35 2 -1.7 2 0 2 C0 1.34 0 0.68 0 0 Z " fill="#4DB3DC" transform="translate(217,246)"/>
<path d="M0 0 C0.99 0 1.98 0 3 0 C2.67 2.97 2.34 5.94 2 9 C0.68 9 -0.64 9 -2 9 C-2.25 3.375 -2.25 3.375 0 0 Z " fill="#298ADA" transform="translate(57,109)"/>
<path d="M0 0 C0.33 0.99 0.66 1.98 1 3 C1.99 3.33 2.98 3.66 4 4 C4 4.66 4 5.32 4 6 C4.66 6 5.32 6 6 6 C6 7.98 6 9.96 6 12 C2.17330957 8.57611908 0.27721526 5.99275057 -1 1 C-0.67 0.67 -0.34 0.34 0 0 Z " fill="#AAD761" transform="translate(241,414)"/>
<path d="M0 0 C0.99 0 1.98 0 3 0 C3.8125 1.6875 3.8125 1.6875 4 4 C1.5625 6.75 1.5625 6.75 -1 9 C-1.625 6.1875 -1.625 6.1875 -2 3 C-1.34 2.01 -0.68 1.02 0 0 Z " fill="#95D056" transform="translate(294,353)"/>
<path d="M0 0 C2 2 2 2 2 5 C2.99 5.33 3.98 5.66 5 6 C5 7.65 5 9.3 5 11 C2.03595495 8.19195732 -0.44499019 5.81684226 -2 2 C-1.34 2 -0.68 2 0 2 C0 1.34 0 0.68 0 0 Z " fill="#A3D56C" transform="translate(199,350)"/>
<path d="M0 0 C2 2 2 2 2.125 5.125 C2.08375 6.07375 2.0425 7.0225 2 8 C2.99 8.33 3.98 8.66 5 9 C5 10.98 5 12.96 5 15 C4.01 14.67 3.02 14.34 2 14 C1.66179834 12.4176994 1.32964061 10.83410625 1 9.25 C0.814375 8.36828125 0.62875 7.4865625 0.4375 6.578125 C0 4 0 4 0 0 Z " fill="#8ECE3A" transform="translate(44,320)"/>
<path d="M0 0 C0.99 0.495 0.99 0.495 2 1 C2 2.65 2 4.3 2 6 C2.66 6 3.32 6 4 6 C4.33 8.31 4.66 10.62 5 13 C3.0625 12.3125 3.0625 12.3125 1 11 C-0.20803458 7.37589626 -0.08821685 3.79332445 0 0 Z " fill="#39A5D6" transform="translate(204,173)"/>
<path d="M0 0 C0 0.99 0 1.98 0 3 C0.66 3.33 1.32 3.66 2 4 C1.67 4.99 1.34 5.98 1 7 C-1.4375 6.25 -1.4375 6.25 -4 5 C-4.8125 2.875 -4.8125 2.875 -5 1 C-2 0 -2 0 0 0 Z " fill="#9BD727" transform="translate(184,425)"/>
<path d="M0 0 C0.99 0.33 1.98 0.66 3 1 C4.1875 4.5625 4.1875 4.5625 5 8 C3.68 8 2.36 8 1 8 C-0.35439668 5.29120665 -0.06501451 2.99066732 0 0 Z " fill="#8AD428" transform="translate(188,373)"/>
<path d="M0 0 C1.875 0.1875 1.875 0.1875 4 1 C4.70211894 2.65204456 5.36971413 4.31923769 6 6 C6.99 6.33 7.98 6.66 9 7 C8.67 8.32 8.34 9.64 8 11 C6.66375099 9.35653302 5.33107149 7.71016314 4 6.0625 C3.2575 5.14597656 2.515 4.22945313 1.75 3.28515625 C0 1 0 1 0 0 Z " fill="#AFD878" transform="translate(204,361)"/>
<path d="M0 0 C3.96 1.98 7.92 3.96 12 6 C12 6.33 12 6.66 12 7 C7.6822542 6.49202991 3.96697886 5.80317221 0 4 C0 2.68 0 1.36 0 0 Z " fill="#94CF78" transform="translate(104,209)"/>
<path d="M0 0 C-0.78375 0.0825 -1.5675 0.165 -2.375 0.25 C-5.14044802 0.71525923 -5.14044802 0.71525923 -6.1875 3 C-6.455625 3.66 -6.72375 4.32 -7 5 C-7.99 5.495 -7.99 5.495 -9 6 C-9 5.34 -9 4.68 -9 4 C-10.32 3.67 -11.64 3.34 -13 3 C-11.5903653 2.29819469 -10.17192359 1.61406042 -8.75 0.9375 C-7.96109375 0.55464844 -7.1721875 0.17179688 -6.359375 -0.22265625 C-3.74006478 -1.08564091 -2.55144824 -0.93045933 0 0 Z " fill="#74C6E2" transform="translate(230,6)"/>
<path d="M0 0 C7.15062486 0.40475235 12.62704304 2.82523652 19 6 C19 6.33 19 6.66 19 7 C14.49248748 7.37562604 14.49248748 7.37562604 12.15625 5.59375 C9.72398013 3.79598531 7.65404394 3.11493319 4.75 2.3125 C3.85796875 2.06113281 2.9659375 1.80976562 2.046875 1.55078125 C1.37140625 1.36902344 0.6959375 1.18726563 0 1 C0 0.67 0 0.34 0 0 Z " fill="#93D8E7" transform="translate(264,4)"/>
<path d="M0 0 C-4.95912807 5.13623978 -4.95912807 5.13623978 -8 7 C-8.99 6.67 -9.98 6.34 -11 6 C-7.83920807 1.48458295 -5.61699982 -0.30362161 0 0 Z " fill="#9AD076" transform="translate(344,313)"/>
<path d="M0 0 C2.66666667 2.66666667 5.33333333 5.33333333 8 8 C7.67 8.66 7.34 9.32 7 10 C6.34 9.34 5.68 8.68 5 8 C2.41645782 7.83312552 2.41645782 7.83312552 0 8 C0 5.36 0 2.72 0 0 Z " fill="#9ED47B" transform="translate(218,278)"/>
<path d="M0 0 C2.97 0.495 2.97 0.495 6 1 C6.33 2.32 6.66 3.64 7 5 C9.97 5.495 9.97 5.495 13 6 C10.50935112 6.68707555 8.62113708 7 6 7 C5.67 6.01 5.34 5.02 5 4 C4.34 3.835 3.68 3.67 3 3.5 C2.34 3.335 1.68 3.17 1 3 C0.67 2.01 0.34 1.02 0 0 Z " fill="#6FC047" transform="translate(76,195)"/>
<path d="M0 0 C3.62276315 1.3255581 6.63505348 2.94346955 9.8125 5.125 C10.60269531 5.66382813 11.39289063 6.20265625 12.20703125 6.7578125 C12.79871094 7.16773438 13.39039062 7.57765625 14 8 C11 9 11 9 8 8 C7 7 6 6 5 5 C4.29875 4.67 3.5975 4.34 2.875 4 C1 3 1 3 0 0 Z " fill="#AEDB99" transform="translate(68,187)"/>
<path d="M0 0 C0.66 0.33 1.32 0.66 2 1 C0.35 2.65 -1.3 4.3 -3 6 C-3.66 5.67 -4.32 5.34 -5 5 C-5.33 5.99 -5.66 6.98 -6 8 C-7.32 7.67 -8.64 7.34 -10 7 C-6.7 4.69 -3.4 2.38 0 0 Z " fill="#8FCF8E" transform="translate(423,190)"/>
<path d="M0 0 C0.66 0.33 1.32 0.66 2 1 C-0.19471406 5.51135667 -2.41173718 7.06273348 -7 9 C-7.33 8.01 -7.66 7.02 -8 6 C-5.36 4.02 -2.72 2.04 0 0 Z " fill="#7EC77C" transform="translate(433,183)"/>
<path d="M0 0 C0.66 0.33 1.32 0.66 2 1 C-0.88406243 4.40843742 -2.3708265 5.86591384 -6.8125 6.8125 C-8.3903125 6.9053125 -8.3903125 6.9053125 -10 7 C-6.81404865 4.36021174 -3.69029454 1.89501612 0 0 Z " fill="#6FB6D9" transform="translate(161,41)"/>
<path d="M0 0 C2.71675995 0.36712972 4.61063713 0.72744599 6.875 2.3125 C7.431875 3.1478125 7.431875 3.1478125 8 4 C7.5703125 6.10546875 7.5703125 6.10546875 7 8 C5.83035398 6.8572081 4.66435444 5.71068285 3.5 4.5625 C2.8503125 3.92441406 2.200625 3.28632813 1.53125 2.62890625 C0 1 0 1 0 0 Z " fill="#A6D571" transform="translate(184,339)"/>
<path d="M0 0 C0.59296875 0.22558594 1.1859375 0.45117188 1.796875 0.68359375 C0.70403923 1.71654811 -0.40283079 2.7346721 -1.515625 3.74609375 C-2.13050781 4.31457031 -2.74539063 4.88304687 -3.37890625 5.46875 C-3.98089844 5.86964844 -4.58289063 6.27054687 -5.203125 6.68359375 C-6.193125 6.35359375 -7.183125 6.02359375 -8.203125 5.68359375 C-7.30284912 4.64827649 -6.38219465 3.6306521 -5.453125 2.62109375 C-4.68742187 1.76837891 -4.68742187 1.76837891 -3.90625 0.8984375 C-2.203125 -0.31640625 -2.203125 -0.31640625 0 0 Z " fill="#85C862" transform="translate(285.203125,274.31640625)"/>
<path d="M0 0 C0.66 0.66 1.32 1.32 2 2 C1.67 2.66 1.34 3.32 1 4 C1.99 4.33 2.98 4.66 4 5 C1.69 6.65 -0.62 8.3 -3 10 C-2.67 8.68 -2.34 7.36 -2 6 C-1.835 5.113125 -1.67 4.22625 -1.5 3.3125 C-1 1 -1 1 0 0 Z " fill="#5BC4E5" transform="translate(282,244)"/>
<path d="M0 0 C-0.1875 1.875 -0.1875 1.875 -1 4 C-3.63678659 5.49655455 -5.16532951 6.17595756 -8.16796875 5.54296875 C-8.77253906 5.36378906 -9.37710937 5.18460938 -10 5 C-8.71186658 4.16121545 -7.41936744 3.32913217 -6.125 2.5 C-5.40570313 2.0359375 -4.68640625 1.571875 -3.9453125 1.09375 C-2 0 -2 0 0 0 Z " fill="#7FC67A" transform="translate(413,198)"/>
<path d="M0 0 C0.5534764 2.07553648 1 3.84365964 1 6 C-0.32 6 -1.64 6 -3 6 C-3 6.99 -3 7.98 -3 9 C-3.66 9 -4.32 9 -5 9 C-4.5206753 4.68607774 -3.2542015 2.83430453 0 0 Z " fill="#29D8EF" transform="translate(419,163)"/>
<path d="M0 0 C2.475 0.495 2.475 0.495 5 1 C5 1.99 5 2.98 5 4 C5.969375 4.28875 6.93875 4.5775 7.9375 4.875 C11 6 11 6 12 8 C10.68 8.33 9.36 8.66 8 9 C8 8.34 8 7.68 8 7 C7.4225 6.773125 6.845 6.54625 6.25 6.3125 C3.4336339 4.66961977 1.91922886 2.60466773 0 0 Z " fill="#30D5F0" transform="translate(415,89)"/>
<path d="M0 0 C0.66 0.33 1.32 0.66 2 1 C1.34 2.32 0.68 3.64 0 5 C-0.66 5 -1.32 5 -2 5 C-2.33 5.66 -2.66 6.32 -3 7 C-3 6.34 -3 5.68 -3 5 C-4.65 5.33 -6.3 5.66 -8 6 C-8 5.34 -8 4.68 -8 4 C-7.01 4 -6.02 4 -5 4 C-5 3.34 -5 2.68 -5 2 C-2.625 0.9375 -2.625 0.9375 0 0 Z " fill="#3293D7" transform="translate(118,68)"/>
<path d="M0 0 C3.4375 1.25 3.4375 1.25 7 3 C7.9375 5.1875 7.9375 5.1875 8 7 C5.125 6.3125 5.125 6.3125 2 5 C0.625 2.375 0.625 2.375 0 0 Z " fill="#A6D656" transform="translate(94,379)"/>
<path d="M0 0 C0.99 0.33 1.98 0.66 3 1 C-0.3 3.31 -3.6 5.62 -7 8 C-7.66 7.34 -8.32 6.68 -9 6 C-8.01 6 -7.02 6 -6 6 C-6 5.01 -6 4.02 -6 3 C-5.195625 2.690625 -4.39125 2.38125 -3.5625 2.0625 C-1.10919595 1.23664655 -1.10919595 1.23664655 0 0 Z " fill="#8EC665" transform="translate(428,364)"/>
<path d="M0 0 C1.53445094 3.06890187 0.54984289 5.70094266 0 9 C-1.98 9.33 -3.96 9.66 -6 10 C-4.6302836 6.00499382 -2.74277578 3.19990508 0 0 Z " fill="#9CD067" transform="translate(317,356)"/>
<path d="M0 0 C-4.48074195 3.36055646 -7.60550707 3.27429625 -13 3 C-13 2.34 -13 1.68 -13 1 C-11.39796533 0.63631108 -9.79325797 0.28438048 -8.1875 -0.0625 C-7.29417969 -0.25972656 -6.40085937 -0.45695312 -5.48046875 -0.66015625 C-3 -1 -3 -1 0 0 Z " fill="#A7E18D" transform="translate(392,290)"/>
<path d="M0 0 C-0.33 1.65 -0.66 3.3 -1 5 C-5.455 5.495 -5.455 5.495 -10 6 C-4 0 -4 0 0 0 Z " fill="#8DCB75" transform="translate(328,244)"/>
<path d="M0 0 C2.375 0.5 2.375 0.5 5 2 C6.08241903 4.66525288 6.49272107 7.1407915 7 10 C3.60582235 6.87378374 1.3937282 4.43458973 0 0 Z " fill="#6FA9D5" transform="translate(54,145)"/>
<path d="M0 0 C2.97 0.33 5.94 0.66 9 1 C9 3.64 9 6.28 9 9 C7.87105124 8.06725891 6.74699124 7.12859878 5.625 6.1875 C4.99851562 5.66542969 4.37203125 5.14335937 3.7265625 4.60546875 C2 3 2 3 0 0 Z " fill="#75CFE4" transform="translate(274,130)"/>
<path d="M0 0 C3 0.75 3 0.75 6 2.75 C6 3.41 6 4.07 6 4.75 C0.06 3.265 0.06 3.265 -6 1.75 C-3 -0.25 -3 -0.25 0 0 Z " fill="#68C4E0" transform="translate(261,121.25)"/>
<path d="M0 0 C1.10844919 3.32534757 0.84454356 5.62182575 0 9 C1.65 8.67 3.3 8.34 5 8 C2.86675182 10.13324818 1.8992226 10.53238345 -1 11 C-1.33 10.67 -1.66 10.34 -2 10 C-1.29411765 2.58823529 -1.29411765 2.58823529 0 0 Z " fill="#D1E8A2" transform="translate(271,447)"/>
<path d="M0 0 C2.92965912 2.92965912 3.94133569 5.680053 4.125 9.8125 C4.08375 10.534375 4.0425 11.25625 4 12 C3.34 12 2.68 12 2 12 C0.86235649 7.73383684 0 4.43513689 0 0 Z " fill="#C1E182" transform="translate(218,426)"/>
<path d="M0 0 C1.45606519 4.52092968 0.27032841 7.51648796 -1 12 C-1.99 12 -2.98 12 -4 12 C-3.33501617 7.61110675 -1.81242323 4.0188515 0 0 Z " fill="#BADF83" transform="translate(283,416)"/>
<path d="M0 0 C0 1.65 0 3.3 0 5 C-2.31 4.67 -4.62 4.34 -7 4 C-6.67 3.01 -6.34 2.02 -6 1 C-4 0 -4 0 0 0 Z " fill="#61C041" transform="translate(324,249)"/>
<path d="M0 0 C1.98 0.99 1.98 0.99 4 2 C4 2.66 4 3.32 4 4 C5.32 4.33 6.64 4.66 8 5 C7.67 5.99 7.34 6.98 7 8 C6.01 8 5.02 8 4 8 C3.67 6.35 3.34 4.7 3 3 C2.01 3 1.02 3 0 3 C0 2.01 0 1.02 0 0 Z " fill="#6AC53E" transform="translate(146,233)"/>
<path d="M0 0 C6.52307692 1.35384615 6.52307692 1.35384615 8.9375 4.625 C9.288125 5.40875 9.63875 6.1925 10 7 C5.56541027 5.6062718 3.12621626 3.39417765 0 0 Z " fill="#71AFD9" transform="translate(76,169)"/>
<path d="M0 0 C1.32 0.33 2.64 0.66 4 1 C2.68 2.65 1.36 4.3 0 6 C-1.32 5.67 -2.64 5.34 -4 5 C-2.68 3.35 -1.36 1.7 0 0 Z " fill="#5B9ACC" transform="translate(67,96)"/>
<path d="M0 0 C0 0.66 0 1.32 0 2 C-0.99 2 -1.98 2 -3 2 C-3.33 2.99 -3.66 3.98 -4 5 C-5.84765625 5.73046875 -5.84765625 5.73046875 -8.0625 6.1875 C-8.79597656 6.34605469 -9.52945313 6.50460938 -10.28515625 6.66796875 C-11.13400391 6.83232422 -11.13400391 6.83232422 -12 7 C-9.20232475 3.70861735 -4.40323273 0 0 0 Z " fill="#88C0DE" transform="translate(113,70)"/>
<path d="M0 0 C2.81080836 1.14726872 4.1782406 1.94701628 6.0625 4.25 C2.12475823 4.61630156 0.49710229 4.55233203 -2.8125 2.25 C-3.51375 1.59 -4.215 0.93 -4.9375 0.25 C-2.9375 -0.75 -2.9375 -0.75 0 0 Z " fill="#6CD7E7" transform="translate(373.9375,62.75)"/>
<path d="M0 0 C-1.485 1.98 -1.485 1.98 -3 4 C-5.31 3.67 -7.62 3.34 -10 3 C-7.29536552 -0.8183075 -4.37912428 -0.24787496 0 0 Z " fill="#55A7D6" transform="translate(137,59)"/>
<path d="M0 0 C3.37462715 0.54723683 5.08235 1.0549 8 3 C8.6875 5.125 8.6875 5.125 9 7 C5.18315774 5.44499019 2.80804268 2.96404505 0 0 Z " fill="#ACD67A" transform="translate(158,316)"/>
<path d="M0 0 C5.57142857 5.14285714 5.57142857 5.14285714 6 9 C2.83884224 7.63016497 2.0072908 7.0109362 0 4 C0 2.68 0 1.36 0 0 Z " fill="#9DD37D" transform="translate(226,288)"/>
<path d="M0 0 C3.465 1.98 3.465 1.98 7 4 C7 4.99 7 5.98 7 7 C4.625 6.3125 4.625 6.3125 2 5 C0.6875 2.375 0.6875 2.375 0 0 Z " fill="#93CF70" transform="translate(195,259)"/>
<path d="M0 0 C-0.125 1.875 -0.125 1.875 -1 4 C-4.0625 5.25 -4.0625 5.25 -7 6 C-6.67 4.35 -6.34 2.7 -6 1 C-3.92446352 0.4465236 -2.15634036 0 0 0 Z " fill="#56D1E6" transform="translate(389,187)"/>
<path d="M0 0 C-0.66 1.98 -1.32 3.96 -2 6 C-2.99 5.34 -3.98 4.68 -5 4 C-5.99 4.495 -5.99 4.495 -7 5 C-6.67 3.68 -6.34 2.36 -6 1 C-3.92446352 0.4465236 -2.15634036 0 0 0 Z " fill="#2F9DDA" transform="translate(157,47)"/>
<path d="M0 0 C1.32 0.33 2.64 0.66 4 1 C2.71186658 1.83878455 1.41936744 2.67086783 0.125 3.5 C-0.59429687 3.9640625 -1.31359375 4.428125 -2.0546875 4.90625 C-4 6 -4 6 -6 6 C-6 5.01 -6 4.02 -6 3 C-4.02 2.67 -2.04 2.34 0 2 C0 1.34 0 0.68 0 0 Z " fill="#B5DB72" transform="translate(295,442)"/>
<path d="M0 0 C-4.95 2.475 -4.95 2.475 -10 5 C-10 4.01 -10 3.02 -10 2 C-3.375 -1.125 -3.375 -1.125 0 0 Z " fill="#A3D269" transform="translate(356,410)"/>
<path d="M0 0 C0.8125 1.6875 0.8125 1.6875 1 4 C-1.3125 6.75 -1.3125 6.75 -4 9 C-4.66 9 -5.32 9 -6 9 C-4.47291037 5.56404834 -2.40072955 2.88087546 0 0 Z " fill="#9BD071" transform="translate(331,338)"/>
<path d="M0 0 C0.598125 0.309375 1.19625 0.61875 1.8125 0.9375 C4.08956772 2.10209704 4.08956772 2.10209704 7 3 C7 3.99 7 4.98 7 6 C1.25 4.375 1.25 4.375 -1 1 C-0.67 0.67 -0.34 0.34 0 0 Z " fill="#93CE5D" transform="translate(122,292)"/>
<path d="M0 0 C0 0.66 0 1.32 0 2 C-6.28571429 4.42857143 -6.28571429 4.42857143 -10 3 C-3.375 -1.125 -3.375 -1.125 0 0 Z " fill="#69BD49" transform="translate(391,287)"/>
<path d="M0 0 C3.53600465 1.91135386 5.78972846 3.62642766 8 7 C4.84859577 6.65930765 3.39218439 6.41923159 1.1875 4.0625 C0 2 0 2 0 0 Z " fill="#9BD17B" transform="translate(210,271)"/>
<path d="M0 0 C1.98 0.66 3.96 1.32 6 2 C6 3.32 6 4.64 6 6 C4.68 6 3.36 6 2 6 C1.34 4.02 0.68 2.04 0 0 Z " fill="#88CB67" transform="translate(169,244)"/>
<path d="M0 0 C0.66 0 1.32 0 2 0 C2.33 1.32 2.66 2.64 3 4 C2.34 4 1.68 4 1 4 C1 4.66 1 5.32 1 6 C-0.32 6 -1.64 6 -3 6 C-1.125 1.125 -1.125 1.125 0 0 Z " fill="#A2CBA8" transform="translate(454,162)"/>
<path d="M0 0 C2 3 2 3 1.625 6.1875 C1.41875 7.115625 1.2125 8.04375 1 9 C-0.5 7.75 -0.5 7.75 -2 6 C-2 4.68 -2 3.36 -2 2 C-1.34 2 -0.68 2 0 2 C0 1.34 0 0.68 0 0 Z " fill="#2B88D9" transform="translate(57,138)"/>
<path d="M0 0 C1.14926266 0.95421808 2.29430541 1.91352045 3.4375 2.875 C4.07558594 3.40867187 4.71367187 3.94234375 5.37109375 4.4921875 C7 6 7 6 8 8 C6.35 7.67 4.7 7.34 3 7 C3 6.01 3 5.02 3 4 C2.01 3.67 1.02 3.34 0 3 C0 2.01 0 1.02 0 0 Z " fill="#9BCD60" transform="translate(153,325)"/>
<path d="M0 0 C0.66 1.32 1.32 2.64 2 4 C1.01 4 0.02 4 -1 4 C-1.33 4.66 -1.66 5.32 -2 6 C-4.0625 6.625 -4.0625 6.625 -6 7 C-5.34 5.35 -4.68 3.7 -4 2 C-2.68 2 -1.36 2 0 2 C0 1.34 0 0.68 0 0 Z " fill="#8BCE63" transform="translate(271,291)"/>
<path d="M0 0 C0.66 0.33 1.32 0.66 2 1 C1.00269864 3.4932534 0.34925469 4.77467439 -1.9375 6.25 C-4 7 -4 7 -7 7 C-7 6.34 -7 5.68 -7 5 C-6.01 4.67 -5.02 4.34 -4 4 C-2.62804426 2.70644173 -1.28817344 1.37701298 0 0 Z " fill="#66BF42" transform="translate(305,258)"/>
<path d="M0 0 C1.98 0 3.96 0 6 0 C4.35830472 2.02054804 2.69088222 4.02043058 1 6 C0.67 6 0.34 6 0 6 C0 4.02 0 2.04 0 0 Z " fill="#5BC1E1" transform="translate(271,255)"/>
<path d="M0 0 C0 0.66 0 1.32 0 2 C-1.32 2 -2.64 2 -4 2 C-4 2.66 -4 3.32 -4 4 C-5.98 4.66 -7.96 5.32 -10 6 C-10.33 5.01 -10.66 4.02 -11 3 C-10.34 2.34 -9.68 1.68 -9 1 C-7.68 1.66 -6.36 2.32 -5 3 C-5 2.34 -5 1.68 -5 1 C-2 0 -2 0 0 0 Z " fill="#2FC2E2" transform="translate(333,217)"/>
<path d="M0 0 C0 0.99 0 1.98 0 3 C-4.43076923 5.09230769 -4.43076923 5.09230769 -7.3125 4.625 C-7.869375 4.41875 -8.42625 4.2125 -9 4 C-2.25 0 -2.25 0 0 0 Z " fill="#85C57D" transform="translate(398,207)"/>
<path d="M0 0 C0 2.62113708 -0.31292445 4.50935112 -1 7 C-2.98 7.33 -4.96 7.66 -7 8 C-6.02133662 6.85373678 -5.04205413 5.70800212 -4.0625 4.5625 C-3.51722656 3.92441406 -2.97195313 3.28632813 -2.41015625 2.62890625 C-1.63204305 1.73008851 -0.84063472 0.84063472 0 0 Z " fill="#77CDE3" transform="translate(281,193)"/>
<path d="M0 0 C2.475 0.99 2.475 0.99 5 2 C5 3.98 5 5.96 5 8 C4.34 7.01 3.68 6.02 3 5 C2.01 4.67 1.02 4.34 0 4 C0 2.68 0 1.36 0 0 Z " fill="#58DBE8" transform="translate(441,110)"/>
<path d="M0 0 C1.65 0 3.3 0 5 0 C5 0.66 5 1.32 5 2 C6.65 2 8.3 2 10 2 C10 2.66 10 3.32 10 4 C3.47692308 3.38461538 3.47692308 3.38461538 1.0625 1.4375 C0.711875 0.963125 0.36125 0.48875 0 0 Z " fill="#B7DB6A" transform="translate(198,442)"/>
<path d="M0 0 C2.50298434 2.93828597 3.46930939 5.17902761 4 9 C3.01 8.67 2.02 8.34 1 8 C-0.25 5.0625 -0.25 5.0625 -1 2 C-0.67 1.34 -0.34 0.68 0 0 Z " fill="#B6DD73" transform="translate(214,417)"/>
<path d="M0 0 C3.02419525 0.58803797 6.01758453 1.22678118 9 2 C8.67 2.66 8.34 3.32 8 4 C5.6875 4.25 5.6875 4.25 3 4 C1.1875 2 1.1875 2 0 0 Z " fill="#9FD34F" transform="translate(61,359)"/>
<path d="M0 0 C1.65 0 3.3 0 5 0 C5.66 1.98 6.32 3.96 7 6 C3.63279613 4.60667426 2.0140476 3.0210714 0 0 Z " fill="#A2D474" transform="translate(167,323)"/>
<path d="M0 0 C-5.14285714 4.42857143 -5.14285714 4.42857143 -9 5 C-9 4.01 -9 3.02 -9 2 C-5.86501708 0.14223235 -3.62528568 -0.20140476 0 0 Z " fill="#90CB73" transform="translate(364,300)"/>
<path d="M0 0 C0 0.66 0 1.32 0 2 C-0.99 2 -1.98 2 -3 2 C-3 2.99 -3 3.98 -3 5 C-5.31 5.33 -7.62 5.66 -10 6 C-7.35570758 3.077361 -4.105808 0 0 0 Z " fill="#95CD82" transform="translate(313,253)"/>
<path d="M0 0 C3.9492568 0.55105909 7.34920174 1.38935371 11 3 C9.4375 4.25 9.4375 4.25 7 5 C4.42998985 3.93237266 2.3469597 2.53455057 0 1 C0 0.67 0 0.34 0 0 Z " fill="#73B8D9" transform="translate(150,211)"/>
<path d="M0 0 C-1.15173355 2.46800047 -2.04783565 4.04783565 -4 6 C-4.99 4.68 -5.98 3.36 -7 2 C-4 0 -4 0 0 0 Z " fill="#5BA6DA" transform="translate(99,79)"/>
<path d="M0 0 C2.50298434 2.93828597 3.46930939 5.17902761 4 9 C2.68 8.34 1.36 7.68 0 7 C0 4.69 0 2.38 0 0 Z " fill="#B1D96F" transform="translate(210,408)"/>
<path d="M0 0 C2.50298434 2.93828597 3.46930939 5.17902761 4 9 C2.68 8.34 1.36 7.68 0 7 C0 4.69 0 2.38 0 0 Z " fill="#A8D681" transform="translate(236,304)"/>
<path d="M0 0 C-1.64169528 2.02054804 -3.30911778 4.02043058 -5 6 C-5.33 6 -5.66 6 -6 6 C-6 4.02 -6 2.04 -6 0 C-3 -1 -3 -1 0 0 Z " fill="#6EC6E6" transform="translate(266,267)"/>
<path d="M0 0 C1.98 0 3.96 0 6 0 C3.64722731 2.72426311 1.37503669 3.8141763 -2 5 C-1.34 3.35 -0.68 1.7 0 0 Z " fill="#6EC8E4" transform="translate(304,232)"/>
<path d="M0 0 C2.31 0.33 4.62 0.66 7 1 C7.33 2.32 7.66 3.64 8 5 C4.62496331 3.8141763 2.35277269 2.72426311 0 0 Z " fill="#77BFDE" transform="translate(181,228)"/>
<path d="M0 0 C1.98 0 3.96 0 6 0 C3.14693203 2.32472205 0.45925163 3.7508258 -3 5 C-3 4.01 -3 3.02 -3 2 C-2.01 2 -1.02 2 0 2 C0 1.34 0 0.68 0 0 Z " fill="#74D6E5" transform="translate(348,208)"/>
<path d="M0 0 C-1.28524261 0.86380259 -2.57842419 1.71580369 -3.875 2.5625 C-4.59429687 3.03816406 -5.31359375 3.51382813 -6.0546875 4.00390625 C-6.69664062 4.33261719 -7.33859375 4.66132813 -8 5 C-8.66 4.67 -9.32 4.34 -10 4 C-4.75 -1.425 -4.75 -1.425 0 0 Z " fill="#78DCE8" transform="translate(414,176)"/>
<path d="M0 0 C1.875 0.25 1.875 0.25 4 1 C5.25 3.0625 5.25 3.0625 6 5 C4.35 4.67 2.7 4.34 1 4 C0.67 2.68 0.34 1.36 0 0 Z " fill="#4B99CD" transform="translate(85,173)"/>
<path d="M0 0 C0.33 0 0.66 0 1 0 C1.19622241 4.21878192 0.80230168 7.17010894 -1 11 C-1.33 11 -1.66 11 -2 11 C-2 8.36 -2 5.72 -2 3 C-1.34 3 -0.68 3 0 3 C0 2.01 0 1.02 0 0 Z " fill="#7DC6E2" transform="translate(210,141)"/>
<path d="M0 0 C2.97 0.495 2.97 0.495 6 1 C6 1.66 6 2.32 6 3 C5.01 3 4.02 3 3 3 C2.67 3.66 2.34 4.32 2 5 C1.01 4.34 0.02 3.68 -1 3 C-0.67 2.01 -0.34 1.02 0 0 Z " fill="#2CD4EE" transform="translate(406,85)"/>
<path d="M0 0 C0.66 0.33 1.32 0.66 2 1 C1.01 3.97 0.02 6.94 -1 10 C-1.33 10 -1.66 10 -2 10 C-2 8.02 -2 6.04 -2 4 C-1.34 4 -0.68 4 0 4 C0 2.68 0 1.36 0 0 Z " fill="#9DD181" transform="translate(449,335)"/>
<path d="M0 0 C1.32 0.66 2.64 1.32 4 2 C-1.75 5 -1.75 5 -4 5 C-4 4.01 -4 3.02 -4 2 C-2.68 2 -1.36 2 0 2 C0 1.34 0 0.68 0 0 Z " fill="#95CD78" transform="translate(368,295)"/>
<path d="M0 0 C1.98 0 3.96 0 6 0 C4.3545622 1.68762851 2.68711423 3.3540349 1 5 C0.67 5 0.34 5 0 5 C0 3.35 0 1.7 0 0 Z " fill="#67C6E0" transform="translate(288,242)"/>
<path d="M0 0 C-2.8125 2.0625 -2.8125 2.0625 -6 4 C-6.99 3.67 -7.98 3.34 -9 3 C-6.27596221 -1.08605669 -4.4643819 -1.38549783 0 0 Z " fill="#67C9DF" transform="translate(302,238)"/>
<path d="M0 0 C1.9451 2.91765 2.45276317 4.62537285 3 8 C1.68 7.67 0.36 7.34 -1 7 C-1.04254356 5.00045254 -1.04080783 2.99958364 -1 1 C-0.67 0.67 -0.34 0.34 0 0 Z " fill="#69C23D" transform="translate(54,177)"/>
<path d="M0 0 C0 0.66 0 1.32 0 2 C-5.75 5 -5.75 5 -8 5 C-7.67 3.68 -7.34 2.36 -7 1 C-2.25 0 -2.25 0 0 0 Z " fill="#2BD5ED" transform="translate(413,173)"/>
<path d="M0 0 C2.875 0.6875 2.875 0.6875 6 2 C7.375 4.625 7.375 4.625 8 7 C4.2047869 5.50902342 2.38957269 3.24299151 0 0 Z " fill="#91C3E2" transform="translate(62,157)"/>
<path d="M0 0 C0 1.98 0 3.96 0 6 C-0.99 6.495 -0.99 6.495 -2 7 C-2 6.34 -2 5.68 -2 5 C-2.66 5 -3.32 5 -4 5 C-3.625 3.0625 -3.625 3.0625 -3 1 C-1 0 -1 0 0 0 Z " fill="#549AD2" transform="translate(55,112)"/>
<path d="M0 0 C0.33 0.66 0.66 1.32 1 2 C1.66 2.33 2.32 2.66 3 3 C5 4 5 4 6 6 C3.36 5.34 0.72 4.68 -2 4 C-1.34 2.68 -0.68 1.36 0 0 Z " fill="#2DD9F0" transform="translate(429,98)"/>
<path d="M0 0 C2.475 0.495 2.475 0.495 5 1 C5 1.66 5 2.32 5 3 C6.32 3.33 7.64 3.66 9 4 C7.02 4.33 5.04 4.66 3 5 C3 4.34 3 3.68 3 3 C2.01 3 1.02 3 0 3 C0 2.01 0 1.02 0 0 Z " fill="#35C8E7" transform="translate(362,59)"/>
<path d="M0 0 C1.32 0.66 2.64 1.32 4 2 C0.04 3.98 0.04 3.98 -4 6 C-3.0022242 3.00667261 -2.2477975 2.05233685 0 0 Z " fill="#A0D05E" transform="translate(336,417)"/>
<path d="M0 0 C0.99 0.33 1.98 0.66 3 1 C2.67 2.65 2.34 4.3 2 6 C0.35 4.68 -1.3 3.36 -3 2 C-2.01 1.34 -1.02 0.68 0 0 Z " fill="#99D42F" transform="translate(131,397)"/>
<path d="M0 0 C2.40072955 2.88087546 4.47291037 5.56404834 6 9 C4.68 8.34 3.36 7.68 2 7 C2 6.01 2 5.02 2 4 C1.34 4 0.68 4 0 4 C0 2.68 0 1.36 0 0 Z " fill="#A1D06B" transform="translate(179,355)"/>
<path d="M0 0 C2.50037734 2.17424117 3.43628586 3.73045798 4 7 C2.68 6.67 1.36 6.34 0 6 C0 4.02 0 2.04 0 0 Z " fill="#A3D47C" transform="translate(232,297)"/>
<path d="M0 0 C2.91517292 1.07401108 4.77810176 1.77810176 7 4 C5.02 4 3.04 4 1 4 C0.67 2.68 0.34 1.36 0 0 Z " fill="#9ACF77" transform="translate(137,227)"/>
<path d="M0 0 C1.32 0.33 2.64 0.66 4 1 C0.375 4 0.375 4 -3 4 C-3.33 4.66 -3.66 5.32 -4 6 C-4 5.01 -4 4.02 -4 3 C-3.01 3 -2.02 3 -1 3 C-0.67 2.01 -0.34 1.02 0 0 Z " fill="#57B948" transform="translate(376,219)"/>
<path d="M0 0 C3.45925163 1.2491742 6.14693203 2.67527795 9 5 C8.01 5.33 7.02 5.66 6 6 C6 5.34 6 4.68 6 4 C3.03 3.505 3.03 3.505 0 3 C0 2.01 0 1.02 0 0 Z " fill="#9ACE7B" transform="translate(116,216)"/>
<path d="M0 0 C2.97 1.65 5.94 3.3 9 5 C7 6 7 6 3.9375 5.3125 C2.968125 4.879375 1.99875 4.44625 1 4 C0.67 2.68 0.34 1.36 0 0 Z " fill="#A7D58C" transform="translate(82,196)"/>
<path d="M0 0 C1.65 0 3.3 0 5 0 C4.67 1.65 4.34 3.3 4 5 C3.01 4.67 2.02 4.34 1 4 C0.3125 1.9375 0.3125 1.9375 0 0 Z " fill="#3BDBE8" transform="translate(426,158)"/>
<path d="M0 0 C0.33 0 0.66 0 1 0 C1 1.98 1 3.96 1 6 C0.34 6 -0.32 6 -1 6 C-1 7.65 -1 9.3 -1 11 C-1.33 11 -1.66 11 -2 11 C-2.28571429 3.57142857 -2.28571429 3.57142857 0 0 Z " fill="#65B5D4" transform="translate(207,149)"/>
<path d="M0 0 C1.32 0.33 2.64 0.66 4 1 C2.35 2.65 0.7 4.3 -1 6 C-1.66 5.67 -2.32 5.34 -3 5 C-3 4.34 -3 3.68 -3 3 C-2.01 3 -1.02 3 0 3 C0 2.01 0 1.02 0 0 Z " fill="#7FCCE0" transform="translate(223,127)"/>
<path d="M0 0 C0.99 0.33 1.98 0.66 3 1 C2.67 1.99 2.34 2.98 2 4 C-0.0625 4.6875 -0.0625 4.6875 -2 5 C-2 3.68 -2 2.36 -2 1 C-1.34 0.67 -0.68 0.34 0 0 Z " fill="#2ADCF4" transform="translate(442,114)"/>
</svg>
